<svg width="630" height="630" viewBox="0 0 630 630" fill="none" xmlns="http://www.w3.org/2000/svg">
<path d="M466.438 285.744C466.438 285.744 436.468 229.451 370.295 221.111C304.122 212.772 257.904 253.434 209.211 274.288C183.7 285.215 154.58 280.977 127.505 286.262C40.9329 303.162 8.31454 409.049 44.382 469.284C75.5961 521.414 130.535 548.527 214.199 554.784C297.864 561.042 356.548 568.334 431.479 517.251C506.41 466.168 501.396 359.788 466.438 285.744Z" fill="#92E3A9"/>
<path opacity="0.8" d="M466.438 285.744C466.438 285.744 436.468 229.451 370.295 221.111C304.122 212.772 257.904 253.434 209.211 274.288C183.7 285.215 154.58 280.977 127.505 286.262C40.9329 303.162 8.31454 409.049 44.382 469.284C75.5961 521.414 130.535 548.527 214.199 554.784C297.864 561.042 356.548 568.334 431.479 517.251C506.41 466.168 501.396 359.788 466.438 285.744Z" fill="white"/>
<path d="M315 629.358C488.97 629.358 630 611.768 630 590.069C630 568.37 488.97 550.78 315 550.78C141.03 550.78 0 568.37 0 590.069C0 611.768 141.03 629.358 315 629.358Z" fill="#92E3A9"/>
<path opacity="0.5" d="M315 629.358C488.97 629.358 630 611.768 630 590.069C630 568.37 488.97 550.78 315 550.78C141.03 550.78 0 568.37 0 590.069C0 611.768 141.03 629.358 315 629.358Z" fill="white"/>
<path d="M627.107 385.755H39.1494V392.492H627.107V385.755Z" fill="#263238"/>
<path d="M452.522 303.54C453.677 303.916 454.87 304.077 456.063 304.017C456.063 304.017 455.525 302.03 455.478 301.831C454.925 300.4 453.186 298.016 451.779 298.254C451.544 298.299 451.319 298.406 451.119 298.569C450.919 298.732 450.749 298.947 450.621 299.199C450.492 299.451 450.408 299.735 450.373 300.031C450.338 300.327 450.354 300.629 450.42 300.917C450.598 301.52 450.878 302.067 451.241 302.52C451.604 302.973 452.041 303.321 452.522 303.54Z" fill="#263238"/>
<path d="M485.381 292.749C483.959 292.55 482.22 294.995 481.762 296.446C481.762 296.585 481.193 298.651 481.225 298.651L480.371 299.923C479.802 300.778 479.186 301.752 478.569 302.865C477.893 304.065 477.27 305.312 476.704 306.601C476.074 308.037 475.545 309.54 475.124 311.092C475.124 310.555 475.124 309.105 475.124 308.985C474.95 307.396 473.891 304.435 472.5 304.117C472.267 304.069 472.027 304.083 471.799 304.16C471.57 304.237 471.357 304.373 471.173 304.561C470.989 304.749 470.839 304.983 470.733 305.249C470.627 305.515 470.566 305.806 470.556 306.104C470.57 306.748 470.697 307.38 470.93 307.954C471.162 308.528 471.493 309.03 471.9 309.423C472.874 310.234 473.939 310.857 475.061 311.271C474.652 312.863 474.335 314.49 474.112 316.14C473.986 317.094 473.859 318.127 473.765 319.041C473.765 318.584 473.765 318.187 473.765 318.127C473.591 316.537 472.532 313.596 471.141 313.278C470.907 313.233 470.668 313.25 470.439 313.328C470.211 313.406 469.997 313.542 469.813 313.729C469.629 313.916 469.477 314.149 469.369 314.414C469.26 314.678 469.196 314.968 469.181 315.265C469.203 315.909 469.336 316.539 469.571 317.112C469.805 317.685 470.136 318.188 470.54 318.584C471.517 319.381 472.582 319.99 473.701 320.393C473.701 320.75 473.622 321.128 473.591 321.505C473.417 323.314 473.259 325.102 473.053 326.851C473.053 327.487 472.895 328.083 472.8 328.699C472.814 328.435 472.814 328.169 472.8 327.905C472.642 326.315 471.583 323.354 470.177 323.036C469.943 322.988 469.704 323.002 469.475 323.079C469.247 323.156 469.033 323.292 468.85 323.48C468.666 323.668 468.516 323.902 468.41 324.168C468.303 324.434 468.243 324.726 468.233 325.023C468.254 325.667 468.386 326.298 468.621 326.871C468.856 327.444 469.187 327.946 469.592 328.342C470.513 329.125 471.526 329.722 472.595 330.11C472.5 330.726 472.39 331.343 472.263 331.939C472.196 332.342 472.111 332.74 472.01 333.131C471.9 333.529 471.805 333.926 471.694 334.323C471.489 335.059 471.267 335.834 471.046 336.549L470.588 337.98C470.667 337.364 470.793 336.172 470.793 335.993C470.786 334.595 470.487 333.224 469.924 332.018C469.939 331.86 469.939 331.7 469.924 331.541C469.895 331.247 469.817 330.964 469.694 330.71C469.572 330.456 469.409 330.238 469.215 330.069C469.021 329.9 468.801 329.784 468.569 329.73C468.337 329.676 468.099 329.683 467.869 329.753C466.494 330.21 465.609 333.25 465.546 334.84C465.546 334.94 465.546 335.973 465.641 336.609C465.562 336.251 465.498 335.874 465.419 335.496C465.277 334.721 465.119 333.966 464.945 333.151L464.661 331.959C464.566 331.561 464.439 331.164 464.329 330.746C464.06 329.812 463.744 328.878 463.412 327.944C464.521 327.657 465.588 327.154 466.573 326.454C467.004 326.099 467.368 325.631 467.641 325.082C467.914 324.533 468.089 323.916 468.154 323.274C468.161 322.976 468.118 322.679 468.029 322.403C467.939 322.127 467.804 321.878 467.632 321.672C467.461 321.466 467.257 321.307 467.034 321.207C466.81 321.106 466.573 321.066 466.336 321.088C464.914 321.287 463.681 324.129 463.428 325.699C463.428 325.798 463.333 326.951 463.286 327.567C463.08 327.01 462.891 326.454 462.669 325.897C462.037 324.307 461.357 322.698 460.678 321.108L460.061 319.637C461.216 319.333 462.329 318.818 463.365 318.107C463.797 317.75 464.163 317.279 464.436 316.727C464.709 316.174 464.883 315.553 464.945 314.908C464.95 314.611 464.906 314.317 464.815 314.043C464.724 313.769 464.589 313.522 464.418 313.318C464.247 313.114 464.043 312.958 463.821 312.858C463.599 312.759 463.363 312.719 463.128 312.741C461.705 312.94 460.472 315.782 460.219 317.352C460.219 317.471 460.077 319.121 460.061 319.538C459.619 318.465 459.176 317.372 458.781 316.299C458.242 314.827 457.778 313.313 457.39 311.768C458.552 311.471 459.671 310.955 460.709 310.237C461.142 309.881 461.508 309.41 461.781 308.857C462.054 308.304 462.227 307.684 462.29 307.038C462.295 306.74 462.25 306.443 462.159 306.168C462.067 305.893 461.93 305.645 461.757 305.441C461.584 305.237 461.379 305.08 461.155 304.982C460.931 304.884 460.693 304.847 460.456 304.872C459.05 305.07 457.817 307.912 457.564 309.482C457.564 309.601 457.406 311.47 457.406 311.708C457.387 311.612 457.36 311.519 457.327 311.43C456.974 309.871 456.736 308.274 456.616 306.66C456.537 305.766 456.489 304.911 456.474 304.077C457.628 303.95 458.759 303.595 459.824 303.023C460.277 302.725 460.673 302.308 460.987 301.801C461.301 301.294 461.524 300.708 461.642 300.082C461.673 299.791 461.656 299.495 461.592 299.212C461.528 298.929 461.418 298.666 461.27 298.439C461.122 298.212 460.938 298.025 460.73 297.891C460.522 297.756 460.295 297.677 460.061 297.658C458.639 297.658 457.169 300.321 456.774 301.831C456.774 301.831 456.616 302.785 456.521 303.421C456.521 303.043 456.521 302.666 456.521 302.308C456.521 300.937 456.521 299.705 456.647 298.612C456.647 297.976 456.742 297.419 456.79 296.883C457.761 296.102 458.63 295.137 459.366 294.021C459.661 293.493 459.861 292.891 459.951 292.256C460.041 291.62 460.02 290.968 459.887 290.345C459.809 290.063 459.684 289.806 459.521 289.589C459.357 289.373 459.159 289.203 458.939 289.09C458.72 288.978 458.484 288.925 458.246 288.936C458.009 288.946 457.777 289.02 457.564 289.152C456.3 289.967 455.984 293.127 456.173 294.756C456.173 294.895 456.679 296.982 456.695 296.982C456.695 297.499 456.584 298.035 456.537 298.632C456.442 299.725 456.347 300.977 456.331 302.328C456.288 303.799 456.315 305.272 456.41 306.74C456.509 308.377 456.726 310 457.058 311.589C456.837 311.132 456.173 309.919 456.11 309.84C455.272 308.628 453.107 306.899 451.795 307.614C451.579 307.735 451.386 307.912 451.228 308.134C451.07 308.356 450.952 308.617 450.88 308.9C450.808 309.184 450.785 309.483 450.812 309.779C450.839 310.074 450.916 310.359 451.036 310.615C451.337 311.139 451.724 311.574 452.172 311.89C452.62 312.205 453.117 312.394 453.629 312.443C454.808 312.437 455.98 312.209 457.106 311.768C457.467 313.377 457.922 314.951 458.465 316.478C458.765 317.372 459.097 318.266 459.445 319.141C459.239 318.763 459.05 318.445 459.018 318.405C458.181 317.193 456.015 315.464 454.703 316.16C454.487 316.283 454.293 316.462 454.135 316.685C453.978 316.909 453.859 317.172 453.787 317.457C453.716 317.742 453.693 318.043 453.72 318.34C453.747 318.637 453.824 318.923 453.945 319.18C454.247 319.701 454.635 320.134 455.082 320.449C455.53 320.765 456.026 320.956 456.537 321.009C457.684 321.01 458.825 320.788 459.919 320.353C460.046 320.691 460.172 321.028 460.314 321.366C460.962 322.996 461.61 324.606 462.211 326.215C462.416 326.772 462.622 327.348 462.811 327.905L462.448 327.249C461.61 326.056 459.429 324.327 458.117 325.023C457.902 325.148 457.71 325.329 457.554 325.553C457.398 325.777 457.281 326.04 457.211 326.325C457.141 326.61 457.119 326.91 457.147 327.206C457.175 327.502 457.253 327.788 457.374 328.044C457.675 328.566 458.063 329.001 458.51 329.316C458.958 329.632 459.455 329.822 459.967 329.872C461.08 329.871 462.188 329.663 463.254 329.256C463.428 329.832 463.618 330.428 463.776 331.005C463.934 331.581 463.997 331.78 464.076 332.177L464.345 333.389C464.487 334.145 464.645 334.94 464.771 335.695C464.898 336.45 464.945 336.708 465.024 337.205L464.36 335.456C463.681 334.105 461.737 331.978 460.346 332.436C460.118 332.514 459.906 332.653 459.724 332.843C459.543 333.032 459.395 333.269 459.292 333.536C459.189 333.803 459.132 334.095 459.126 334.392C459.12 334.689 459.164 334.984 459.255 335.258C459.483 335.834 459.809 336.34 460.211 336.738C460.613 337.137 461.08 337.418 461.579 337.563C462.741 337.787 463.925 337.787 465.087 337.563C465.214 338.397 465.34 339.192 465.435 339.967C465.814 342.63 466.052 344.856 466.194 346.426C466.194 346.704 466.194 346.963 466.194 347.181H461.673L463.254 385.636H470.556L472.137 347.181H468.138L468.233 346.963C468.786 345.532 469.545 343.465 470.366 341.001L471.157 338.477C472.302 338.799 473.478 338.912 474.65 338.815C475.149 338.72 475.626 338.494 476.051 338.152C476.476 337.809 476.839 337.358 477.115 336.827C477.221 336.561 477.28 336.27 477.29 335.973C477.299 335.676 477.259 335.38 477.17 335.104C477.082 334.828 476.949 334.578 476.779 334.372C476.608 334.166 476.405 334.007 476.183 333.906C474.824 333.33 472.769 335.257 472.01 336.549C472.01 336.549 471.552 337.523 471.299 338.079L471.631 336.986C471.836 336.251 472.042 335.516 472.247 334.701L472.532 333.529C472.633 333.117 472.717 332.699 472.785 332.277C472.974 331.303 473.117 330.289 473.259 329.315C474.314 329.845 475.429 330.167 476.562 330.269C477.075 330.269 477.582 330.126 478.047 329.851C478.511 329.577 478.922 329.176 479.249 328.68C479.385 328.435 479.478 328.158 479.523 327.865C479.568 327.572 479.564 327.271 479.51 326.98C479.457 326.69 479.355 326.416 479.212 326.179C479.069 325.941 478.888 325.743 478.68 325.599C477.416 324.784 475.14 326.295 474.239 327.428C474.239 327.428 473.606 328.401 473.306 328.898C473.385 328.302 473.448 327.686 473.512 327.07C473.686 325.301 473.828 323.493 473.97 321.704C473.97 321.148 474.049 320.591 474.096 320.035C475.191 320.596 476.348 320.938 477.526 321.048C478.038 321.048 478.543 320.907 479.007 320.636C479.471 320.364 479.883 319.97 480.213 319.478C480.349 319.234 480.443 318.956 480.488 318.664C480.533 318.371 480.528 318.069 480.474 317.779C480.421 317.488 480.319 317.215 480.176 316.977C480.033 316.739 479.852 316.542 479.644 316.398C478.38 315.563 476.104 317.094 475.203 318.206C475.203 318.206 474.302 319.598 474.112 319.935C474.207 318.723 474.318 317.531 474.476 316.338C474.657 314.738 474.931 313.158 475.298 311.609C476.394 312.161 477.55 312.503 478.727 312.622C479.239 312.623 479.745 312.483 480.209 312.211C480.673 311.94 481.085 311.544 481.414 311.052C481.55 310.808 481.644 310.53 481.689 310.237C481.734 309.945 481.729 309.643 481.676 309.353C481.622 309.062 481.52 308.789 481.377 308.551C481.234 308.313 481.053 308.116 480.845 307.972C479.581 307.137 477.321 308.667 476.404 309.78C476.404 309.88 475.456 311.271 475.298 311.549C475.303 311.456 475.303 311.363 475.298 311.271C475.691 309.724 476.188 308.221 476.783 306.78C477.115 305.985 477.463 305.249 477.811 304.534C478.832 305.221 479.929 305.71 481.067 305.985C481.577 306.051 482.094 305.977 482.579 305.768C483.065 305.559 483.509 305.219 483.88 304.772C484.034 304.547 484.149 304.283 484.217 303.999C484.286 303.714 484.307 303.415 484.279 303.119C484.25 302.824 484.174 302.54 484.053 302.284C483.933 302.028 483.772 301.806 483.58 301.632C482.394 300.659 480.008 301.851 479.012 302.845C479.012 302.845 478.443 303.52 478.095 303.977L478.569 303.043C479.17 301.911 479.771 300.917 480.308 300.043L481.177 298.711C482.328 298.736 483.474 298.535 484.575 298.115C485.053 297.879 485.485 297.515 485.839 297.048C486.194 296.581 486.464 296.023 486.63 295.412C486.696 295.134 486.716 294.842 486.688 294.554C486.661 294.266 486.586 293.988 486.468 293.738C486.351 293.488 486.194 293.271 486.007 293.101C485.82 292.931 485.607 292.811 485.381 292.749ZM469.576 340.643C468.707 343.107 467.996 345.134 467.363 346.605L467.047 347.36H466.952C466.952 347.108 466.921 346.81 466.858 346.466C466.684 344.876 466.415 342.63 465.988 339.948C465.862 339.113 465.704 338.199 465.53 337.285C466.2 336.948 466.855 336.563 467.49 336.132C468.35 337.061 469.307 337.836 470.335 338.437C470.114 339.153 469.861 339.928 469.576 340.643Z" fill="#263238"/>
<path d="M477.842 304.156C477.842 304.156 478.301 302.05 478.317 301.91C478.49 300.341 478.095 297.141 476.736 296.366C476.521 296.242 476.287 296.177 476.05 296.175C475.814 296.173 475.579 296.234 475.363 296.355C475.146 296.475 474.953 296.651 474.794 296.872C474.636 297.094 474.517 297.354 474.444 297.638C474.328 298.267 474.323 298.92 474.429 299.552C474.536 300.184 474.751 300.779 475.061 301.294C475.875 302.41 476.812 303.374 477.842 304.156Z" fill="#263238"/>
<path d="M113.309 307.515C114.401 307.88 115.53 308.041 116.659 307.992C116.659 307.992 116.138 306.004 116.106 305.905C115.585 304.534 113.925 302.268 112.582 302.507C112.359 302.549 112.145 302.651 111.956 302.806C111.767 302.96 111.607 303.164 111.486 303.403C111.364 303.642 111.285 303.911 111.253 304.192C111.222 304.472 111.238 304.759 111.301 305.031C111.471 305.604 111.738 306.124 112.085 306.554C112.432 306.983 112.85 307.311 113.309 307.515Z" fill="#263238"/>
<path d="M144.476 297.32C143.133 297.141 141.521 299.446 141.031 300.837C141.031 300.977 140.493 302.944 140.525 302.944C140.256 303.302 139.988 303.699 139.703 304.136C139.182 304.951 138.581 305.885 137.996 306.938C137.411 307.992 136.795 309.184 136.226 310.476C135.605 311.849 135.076 313.285 134.646 314.768C134.646 314.272 134.646 312.88 134.646 312.781C134.487 311.271 133.476 308.469 132.148 308.171C131.919 308.121 131.685 308.135 131.461 308.213C131.237 308.29 131.029 308.429 130.853 308.618C130.676 308.808 130.535 309.044 130.439 309.31C130.344 309.577 130.296 309.866 130.299 310.158C130.318 310.77 130.442 311.369 130.663 311.914C130.884 312.46 131.197 312.939 131.579 313.318C132.519 314.094 133.548 314.684 134.63 315.066C134.246 316.582 133.945 318.13 133.729 319.697C133.602 320.611 133.492 321.545 133.397 322.459C133.397 322.022 133.397 321.644 133.397 321.585C133.239 320.074 132.227 317.272 130.9 316.974C130.677 316.926 130.449 316.938 130.231 317.01C130.013 317.081 129.809 317.211 129.634 317.39C129.459 317.569 129.316 317.793 129.215 318.047C129.115 318.301 129.058 318.579 129.05 318.862C129.069 319.474 129.194 320.073 129.415 320.619C129.636 321.164 129.948 321.643 130.331 322.022C131.238 322.783 132.236 323.36 133.286 323.731C133.286 324.089 133.207 324.447 133.176 324.804C133.018 326.513 132.86 328.222 132.67 329.892L132.433 331.641C132.433 331.243 132.433 330.925 132.433 330.885C132.275 329.375 131.263 326.573 129.936 326.255C129.707 326.205 129.472 326.22 129.248 326.297C129.024 326.374 128.816 326.513 128.64 326.703C128.463 326.892 128.322 327.129 128.226 327.395C128.131 327.661 128.083 327.95 128.086 328.242C128.106 328.851 128.231 329.447 128.452 329.989C128.673 330.531 128.985 331.006 129.367 331.382C130.249 332.12 131.213 332.689 132.227 333.071C132.132 333.648 132.038 334.244 131.911 334.8C131.844 335.184 131.759 335.562 131.658 335.933L131.374 337.066C131.168 337.761 130.963 338.497 130.757 339.172C130.552 339.848 130.457 340.106 130.315 340.544C130.394 339.967 130.52 338.815 130.52 338.715C130.504 337.381 130.215 336.074 129.683 334.92C129.691 334.767 129.691 334.615 129.683 334.463C129.658 334.18 129.585 333.907 129.47 333.663C129.354 333.419 129.198 333.209 129.012 333.047C128.827 332.885 128.615 332.775 128.393 332.724C128.17 332.674 127.942 332.684 127.723 332.754C126.411 333.191 125.573 336.092 125.51 337.603C125.51 337.702 125.51 338.676 125.51 339.292L125.32 338.219C125.178 337.483 125.02 336.768 124.862 335.993C124.767 335.615 124.688 335.238 124.593 334.86C124.499 334.482 124.372 334.085 124.277 333.707C124.009 332.813 123.724 331.919 123.408 331.044C124.537 330.708 125.615 330.144 126.601 329.375C127.003 329.033 127.343 328.586 127.596 328.065C127.85 327.544 128.011 326.961 128.071 326.354C128.072 326.076 128.026 325.8 127.937 325.545C127.848 325.29 127.717 325.061 127.553 324.874C127.389 324.687 127.196 324.545 126.985 324.457C126.775 324.37 126.552 324.339 126.332 324.367C124.988 324.546 123.819 327.249 123.582 328.739C123.582 328.838 123.471 329.931 123.44 330.528C123.25 330.011 123.06 329.474 122.855 328.938C122.254 327.408 121.606 325.897 120.958 324.367L120.389 322.976C121.494 322.691 122.559 322.202 123.55 321.525C123.955 321.181 124.295 320.731 124.549 320.206C124.802 319.682 124.963 319.094 125.02 318.485C125.021 318.206 124.976 317.93 124.887 317.675C124.797 317.42 124.667 317.192 124.503 317.004C124.339 316.817 124.145 316.675 123.935 316.588C123.725 316.5 123.502 316.469 123.282 316.497C121.938 316.696 120.768 319.399 120.516 320.889C120.516 320.989 120.389 322.579 120.373 322.976C119.947 321.943 119.536 320.989 119.156 319.876C118.644 318.483 118.206 317.049 117.844 315.583C118.951 315.294 120.016 314.798 121.006 314.113C121.413 313.777 121.757 313.333 122.011 312.81C122.265 312.288 122.424 311.701 122.475 311.092C122.477 310.813 122.431 310.538 122.342 310.283C122.253 310.027 122.122 309.799 121.958 309.611C121.794 309.424 121.601 309.282 121.39 309.195C121.18 309.107 120.957 309.077 120.737 309.105C119.393 309.283 118.224 311.986 117.987 313.477C117.987 313.596 117.844 315.285 117.844 315.603C117.838 315.517 117.838 315.431 117.844 315.345C117.51 313.863 117.282 312.347 117.165 310.814C117.165 309.959 117.054 309.144 117.023 308.349C118.111 308.228 119.178 307.892 120.184 307.356C120.617 307.072 120.996 306.672 121.294 306.185C121.591 305.697 121.8 305.134 121.906 304.534C121.941 304.249 121.926 303.958 121.862 303.682C121.798 303.405 121.687 303.149 121.536 302.932C121.386 302.714 121.2 302.541 120.991 302.423C120.782 302.305 120.555 302.245 120.326 302.248C118.967 302.248 117.56 304.772 117.165 306.223C117.165 306.223 117.007 307.117 116.912 307.733C116.912 307.376 116.912 306.998 116.912 306.66C116.912 305.368 116.912 304.196 117.038 303.143C117.038 302.546 117.133 302.01 117.181 301.513C118.1 300.771 118.921 299.852 119.615 298.79C119.9 298.291 120.093 297.718 120.18 297.113C120.268 296.508 120.247 295.887 120.12 295.293C120.047 295.026 119.93 294.781 119.775 294.576C119.621 294.37 119.434 294.209 119.226 294.102C119.018 293.994 118.794 293.944 118.57 293.954C118.345 293.964 118.125 294.035 117.924 294.16C116.706 294.935 116.343 297.996 116.596 299.486C116.596 299.625 117.07 301.612 117.086 301.593C117.086 302.07 116.975 302.586 116.928 303.163C116.928 304.196 116.754 305.388 116.738 306.68C116.669 308.07 116.669 309.464 116.738 310.853C116.825 312.412 117.032 313.956 117.355 315.464L116.454 313.815C115.663 312.662 113.593 311.012 112.344 311.688C112.137 311.802 111.952 311.971 111.801 312.183C111.651 312.394 111.538 312.644 111.47 312.915C111.403 313.187 111.383 313.473 111.411 313.755C111.439 314.037 111.515 314.308 111.633 314.55C111.917 315.045 112.283 315.456 112.706 315.754C113.129 316.053 113.599 316.232 114.083 316.279C115.203 316.282 116.318 316.067 117.386 315.643C117.748 317.164 118.181 318.657 118.682 320.114C118.967 320.969 119.283 321.823 119.615 322.658L119.22 321.943C118.429 320.79 116.359 319.16 115.11 319.816C114.903 319.93 114.718 320.099 114.567 320.311C114.417 320.522 114.304 320.772 114.236 321.043C114.169 321.315 114.149 321.601 114.177 321.883C114.205 322.165 114.28 322.436 114.399 322.678C114.682 323.176 115.047 323.59 115.471 323.892C115.894 324.194 116.364 324.376 116.849 324.427C117.921 324.415 118.985 324.207 120.01 323.811C120.152 324.129 120.263 324.447 120.389 324.765C121.006 326.315 121.638 327.845 122.207 329.375L122.776 330.985L122.428 330.369C121.638 329.216 119.567 327.567 118.319 328.242C118.112 328.356 117.927 328.525 117.776 328.737C117.625 328.948 117.512 329.198 117.445 329.47C117.377 329.741 117.357 330.027 117.385 330.309C117.413 330.591 117.489 330.862 117.607 331.104C117.89 331.602 118.256 332.016 118.679 332.318C119.102 332.62 119.572 332.802 120.057 332.853C121.129 332.863 122.196 332.662 123.218 332.257C123.392 332.813 123.566 333.37 123.724 333.926C123.882 334.482 123.93 334.661 124.009 335.059C124.088 335.456 124.182 335.814 124.261 336.191C124.404 336.907 124.546 337.662 124.672 338.378L124.909 339.828C124.72 339.292 124.309 338.258 124.277 338.159C123.629 336.887 121.78 334.86 120.468 335.277C120.248 335.349 120.042 335.479 119.866 335.66C119.69 335.84 119.546 336.067 119.446 336.323C119.345 336.58 119.29 336.861 119.283 337.147C119.277 337.433 119.32 337.717 119.409 337.98C119.632 338.526 119.947 339.004 120.332 339.381C120.717 339.759 121.162 340.027 121.638 340.166C122.738 340.38 123.857 340.38 124.957 340.166C125.083 340.941 125.21 341.716 125.305 342.451C125.668 344.975 125.874 347.102 126.016 348.592C126.016 348.871 126.016 349.089 126.016 349.328H121.938L123.424 385.874H130.378L131.974 349.248H128.181V349.029C128.703 347.658 129.43 345.691 130.204 343.286C130.457 342.531 130.71 341.716 130.963 340.862C132.048 341.193 133.168 341.307 134.282 341.2C134.764 341.104 135.223 340.876 135.627 340.532C136.031 340.189 136.371 339.738 136.621 339.212C136.724 338.96 136.783 338.682 136.793 338.398C136.804 338.115 136.766 337.832 136.682 337.568C136.598 337.304 136.47 337.066 136.307 336.87C136.144 336.674 135.949 336.524 135.736 336.43C134.456 335.893 132.496 337.722 131.769 338.954L131.105 340.405C131.2 340.067 131.311 339.729 131.405 339.371C131.611 338.676 131.801 337.96 132.006 337.205C132.101 336.827 132.18 336.45 132.275 336.072C132.37 335.695 132.433 335.297 132.512 334.9C132.686 333.966 132.828 333.032 132.954 332.078C133.966 332.575 135.032 332.876 136.115 332.972C136.602 332.969 137.083 332.834 137.524 332.577C137.966 332.32 138.359 331.946 138.676 331.482C138.811 331.251 138.906 330.986 138.952 330.706C138.999 330.425 138.996 330.135 138.945 329.856C138.894 329.576 138.796 329.314 138.656 329.087C138.517 328.86 138.34 328.673 138.139 328.54C136.937 327.765 134.772 329.216 133.918 330.289C133.918 330.289 133.318 331.203 133.018 331.68C133.097 331.104 133.16 330.528 133.223 329.951C133.397 328.262 133.523 326.533 133.65 324.824C133.65 324.307 133.729 323.791 133.776 323.254C134.817 323.778 135.915 324.099 137.032 324.208C137.519 324.205 137.999 324.07 138.441 323.813C138.883 323.556 139.276 323.182 139.593 322.718C139.725 322.488 139.817 322.224 139.862 321.946C139.907 321.667 139.904 321.38 139.853 321.103C139.802 320.826 139.704 320.566 139.567 320.341C139.429 320.115 139.255 319.93 139.055 319.796C137.838 319.001 135.689 320.452 134.819 321.525C134.819 321.525 133.982 322.837 133.792 323.155C133.887 322.002 133.982 320.869 134.124 319.737C134.309 318.22 134.573 316.719 134.914 315.245C135.96 315.771 137.063 316.092 138.186 316.199C138.67 316.196 139.149 316.061 139.588 315.803C140.027 315.546 140.417 315.173 140.731 314.709C140.866 314.478 140.96 314.214 141.007 313.933C141.053 313.652 141.051 313.362 141 313.083C140.949 312.803 140.85 312.541 140.711 312.314C140.572 312.087 140.395 311.901 140.193 311.768C138.992 310.993 136.827 312.443 135.973 313.516C135.973 313.516 135.056 314.927 134.93 315.186V314.908C135.305 313.441 135.781 312.018 136.353 310.655C136.653 309.9 136.985 309.184 137.317 308.508C138.303 309.182 139.371 309.646 140.478 309.88C140.962 309.952 141.453 309.887 141.915 309.692C142.377 309.496 142.798 309.173 143.149 308.747C143.301 308.536 143.415 308.287 143.484 308.015C143.553 307.744 143.574 307.457 143.547 307.175C143.521 306.892 143.446 306.62 143.328 306.377C143.21 306.134 143.052 305.926 142.864 305.766C141.742 304.812 139.466 305.945 138.518 306.899L137.649 307.992C137.807 307.694 137.949 307.376 138.107 307.097C138.676 306.024 139.245 305.11 139.687 304.256C139.988 303.779 140.256 303.361 140.525 302.984C141.596 302.989 142.661 302.794 143.686 302.407C144.14 302.181 144.549 301.835 144.887 301.393C145.225 300.951 145.484 300.422 145.646 299.844C145.71 299.581 145.73 299.305 145.705 299.033C145.68 298.76 145.611 298.497 145.501 298.26C145.391 298.023 145.243 297.817 145.067 297.655C144.891 297.493 144.69 297.379 144.476 297.32ZM129.556 342.849C128.734 345.214 127.976 347.142 127.454 348.473C127.343 348.751 127.233 348.99 127.154 349.208H127.059C127.059 348.93 127.059 348.652 126.964 348.334C126.806 346.824 126.553 344.697 126.142 342.153C126.016 341.339 125.874 340.484 125.716 339.61C126.348 339.291 126.966 338.926 127.565 338.517C128.385 339.392 129.294 340.127 130.267 340.703C130.036 341.458 129.799 342.173 129.556 342.849Z" fill="#263238"/>
<path d="M137.38 308.151C137.38 308.151 137.807 306.163 137.823 306.044C137.981 304.534 137.601 301.493 136.384 300.758C136.18 300.637 135.957 300.573 135.731 300.57C135.505 300.567 135.281 300.625 135.074 300.739C134.867 300.854 134.683 301.024 134.532 301.236C134.382 301.448 134.27 301.699 134.203 301.97C134.091 302.567 134.084 303.187 134.182 303.788C134.28 304.389 134.482 304.955 134.772 305.448C135.529 306.508 136.408 307.419 137.38 308.151Z" fill="#263238"/>
<path d="M490.123 389.729V16.435" stroke="#263238" stroke-linecap="round" stroke-linejoin="round"/>
<path d="M224.594 389.729V18.76" stroke="#263238" stroke-linecap="round" stroke-linejoin="round"/>
<path d="M55.0815 206.48H605.881" stroke="#263238" stroke-linecap="round" stroke-linejoin="round"/>
<path d="M138.233 40.4019H149.06C150.452 40.4019 151.786 41.097 152.771 42.3344C153.755 43.5717 154.307 45.2499 154.307 46.9998V62.0834H132.923V46.9998C132.923 46.1266 133.061 45.2621 133.328 44.4564C133.596 43.6507 133.988 42.9198 134.482 42.3061C134.976 41.6923 135.562 41.208 136.206 40.8811C136.85 40.5543 137.539 40.3914 138.233 40.4019Z" fill="#263238"/>
<path d="M153.296 82.0755C153.296 84.5438 152.713 86.9567 151.623 89.0091C150.532 91.0615 148.982 92.6611 147.168 93.6057C145.355 94.5503 143.359 94.7974 141.433 94.3159C139.508 93.8343 137.739 92.6457 136.351 90.9003C134.963 89.1549 134.018 86.9312 133.635 84.5102C133.252 82.0893 133.448 79.58 134.2 77.2995C134.951 75.019 136.223 73.0699 137.855 71.6985C139.488 70.3272 141.407 69.5952 143.37 69.5952C146.002 69.5952 148.527 70.9101 150.388 73.2506C152.25 75.5911 153.296 78.7655 153.296 82.0755Z" fill="white"/>
<path d="M185.855 82.6518H101.438L133.097 60.9704H154.118L185.855 82.6518Z" fill="#263238"/>
<path d="M145.425 0H141.853V43.3827H145.425V0Z" fill="#263238"/>
<path d="M543.576 40.4018H554.387C555.779 40.4018 557.114 41.0969 558.098 42.3343C559.082 43.5716 559.635 45.2498 559.635 46.9996V62.0832H538.329V46.9996C538.329 45.2498 538.882 43.5716 539.866 42.3343C540.85 41.0969 542.185 40.4018 543.576 40.4018Z" fill="#263238"/>
<path d="M548.713 94.5557C554.195 94.5557 558.639 88.9681 558.639 82.0755C558.639 75.1828 554.195 69.5952 548.713 69.5952C543.231 69.5952 538.787 75.1828 538.787 82.0755C538.787 88.9681 543.231 94.5557 548.713 94.5557Z" fill="white"/>
<path d="M591.198 82.6518H506.782L538.44 60.9704H559.461L591.198 82.6518Z" fill="#263238"/>
<path d="M550.768 0H547.196V43.3827H550.768V0Z" fill="#263238"/>
<path d="M302.103 137.919L295.244 143.225" stroke="#263238" stroke-width="0.5" stroke-linecap="round" stroke-linejoin="round"/>
<path d="M417.893 48.192L311.333 130.764" stroke="#263238" stroke-width="0.5" stroke-linecap="round" stroke-linejoin="round"/>
<path d="M431.959 53.7762L346.579 119.914" stroke="#263238" stroke-width="0.5" stroke-linecap="round" stroke-linejoin="round"/>
<path d="M469.244 24.8809L443.45 44.8533" stroke="#263238" stroke-width="0.5" stroke-linecap="round" stroke-linejoin="round"/>
<path d="M261.686 469.703C261.686 469.703 259.542 483.906 261.045 491.432C262.548 498.959 268.14 535.777 269.668 550.818C271.195 565.858 278.488 588.671 278.919 589.755C279.35 590.839 278.278 593.833 278.278 595.126C278.278 596.42 278.709 599.437 278.709 599.437C278.709 599.437 272.464 603.515 269.237 605.461C266.009 607.407 267.525 608.257 270.53 608.676C273.536 609.095 316.107 608.676 316.107 608.676C316.107 608.676 317.179 608.467 315.885 606.533C314.592 604.599 305.772 598.575 305.772 598.575C305.602 597.145 305.532 595.704 305.563 594.264C305.563 591.258 302.976 585.875 302.976 585.875C302.976 585.875 307.719 551.458 306.672 542.417C305.624 533.375 305.169 524.137 306.893 515.958C308.618 507.778 306.031 471.428 306.462 469.703C306.683 468.456 306.533 467.171 306.031 466.008C306.031 466.008 292.481 471.378 281.074 472.241C274.503 472.843 267.881 471.976 261.686 469.703Z" fill="#263238" stroke="#263238" stroke-miterlimit="10" stroke-linecap="round"/>
<path d="M315.898 606.533C314.604 604.599 305.785 598.575 305.785 598.575C305.785 598.575 305.785 598.415 305.785 598.144C300.491 599.89 295.546 602.555 291.175 606.015C291.175 606.015 291.878 605.079 287.911 601.815C285.273 599.826 281.964 598.942 278.685 599.351C278.685 599.351 272.44 603.428 269.212 605.375C265.985 607.321 267.5 608.171 270.506 608.59C273.511 609.009 316.083 608.59 316.083 608.59C316.083 608.59 317.191 608.479 315.898 606.533Z" fill="white" stroke="#263238" stroke-linecap="round" stroke-linejoin="round"/>
<path d="M269.508 606.791C269.508 606.791 277.428 607.37 280.705 606.41" stroke="#263238" stroke-width="0.75" stroke-linecap="round" stroke-linejoin="round"/>
<path d="M259.358 410.317C259.358 410.317 253.199 443.576 251.61 448.578C250.021 453.579 250.636 465.207 255.305 463.852C259.974 462.497 261.464 455.537 261.871 453.603C262.277 451.669 262.647 417.881 262.647 412.042C262.647 406.203 259.358 410.317 259.358 410.317Z" fill="#92E3A9" stroke="#263238" stroke-linecap="round" stroke-linejoin="round"/>
<path d="M281.789 397.494C281.789 397.494 265.899 402.163 263.312 402.705C260.725 403.247 259.444 407.115 259.309 410.317C259.173 413.52 259.715 446.225 259.58 455.981C259.444 465.737 258.114 469.063 262.511 472.659C266.909 476.256 279.338 476.934 290.683 476.133C302.028 475.332 307.115 471.859 307.115 466.796C307.115 461.733 306.314 437.688 306.314 437.688C306.314 437.688 307.546 423.67 310.318 417.659C313.089 411.648 314.715 409.775 312.584 407.644C310.453 405.513 297.224 397.901 292.025 396.423C288.588 395.644 284.99 396.02 281.789 397.494Z" fill="#92E3A9" stroke="#263238" stroke-linecap="round" stroke-linejoin="round"/>
<path d="M278.722 406.844L280.188 416.193L290.868 409.911L286.199 402.298C286.199 402.298 279.658 404.306 278.722 406.844Z" fill="#263238" stroke="#263238" stroke-linecap="round" stroke-linejoin="round"/>
<path d="M282.627 392.653C280.518 394.489 278.836 396.763 277.7 399.317C276.209 403.099 273.105 409.073 274.374 409.406C275.642 409.738 279.424 406.548 280.225 406.548C281.026 406.548 282.627 410.441 283.095 410.564C284.742 410.112 286.352 409.535 287.911 408.839C287.911 408.839 288.601 413.766 290.092 413.89C291.582 414.013 296.633 406.314 297.556 400.574C298.48 394.834 295.487 393.922 294.908 393.799C294.329 393.676 287.566 390.707 282.627 392.653Z" fill="#92E3A9" stroke="#263238" stroke-linecap="round" stroke-linejoin="round"/>
<path d="M281.826 373.942C281.826 373.942 281.604 368.67 281.604 365.455C281.604 362.24 282.06 360.528 284.007 359.825C285.953 359.123 286.532 362.129 286.47 363.73C286.409 365.332 281.826 373.942 281.826 373.942Z" fill="#263238" stroke="#263238" stroke-linecap="round" stroke-linejoin="round"/>
<path d="M281.826 372.686C281.826 372.686 281.715 368.781 280.336 370.85C278.956 372.92 279.424 377.736 280.336 377.28C281.247 376.824 281.826 372.686 281.826 372.686Z" fill="white" stroke="#263238" stroke-linecap="round" stroke-linejoin="round"/>
<path d="M282.06 392.432C282.06 392.432 281.715 401.719 281.481 405.39C281.247 409.061 282.516 411.13 284.696 410.317C286.877 409.504 292.161 402.508 293.762 399.761C294.83 397.858 295.713 395.858 296.398 393.787C296.398 393.787 288.49 396.213 282.06 392.432Z" fill="white" stroke="#263238" stroke-linecap="round" stroke-linejoin="round"/>
<path d="M284.672 362.585C284.672 362.585 280.545 376.246 279.399 381.173C278.254 386.1 278.82 390.251 280.89 393.491C281.86 394.983 283.213 396.187 284.808 396.976C286.403 397.765 288.182 398.11 289.956 397.975C293.651 397.852 298.221 396.94 300.968 391.2C302.429 388.027 303.696 384.769 304.762 381.444C305.329 380.298 307.398 374.324 308.544 370.542C309.69 366.761 307.423 362.203 303.038 359.641C301.707 358.815 292.74 353.149 284.672 362.585Z" fill="white" stroke="#263238" stroke-linecap="round" stroke-linejoin="round"/>
<path d="M305.612 380.15C305.612 380.15 308.483 377.847 309.308 379.571C310.133 381.296 308.618 384.388 306.672 385.422C306.202 385.732 305.666 385.926 305.106 385.986C304.547 386.046 303.981 385.971 303.457 385.767C303.457 385.767 304.381 381.407 305.612 380.15Z" fill="white" stroke="#263238" stroke-linecap="round" stroke-linejoin="round"/>
<path d="M309.369 357.768L308.137 356.389C308.137 356.389 308.027 355.465 304.344 354.098C300.66 352.73 296.423 352.94 294.932 351.104C293.442 349.269 291.717 348.813 287.357 349.503C282.996 350.193 281.198 354.664 281.198 358.335C281.198 362.006 289.118 367.179 294.624 367.98C300.131 368.781 305.538 367.056 304.38 368.091C303.223 369.126 299.909 372.796 301.055 374.065C302.2 375.334 302.89 376.122 302.89 377.625C302.89 378.648 302.681 381.013 302.73 382.442C302.286 383.341 301.104 385.743 300.833 386.137C300.562 386.531 297.273 383.846 295.314 382.811C294.408 382.252 293.391 381.899 292.333 381.776C292.333 381.776 292.222 383.501 291.422 383.723C290.621 383.944 287.862 383.957 287.049 383.156C286.796 382.803 286.616 382.404 286.518 381.981C286.421 381.558 286.409 381.12 286.482 380.692C283.675 380.793 281.009 381.95 279.017 383.932C278.555 387.229 279.247 390.584 280.976 393.429C281.946 394.921 283.299 396.125 284.894 396.914C286.49 397.703 288.268 398.048 290.042 397.913C293.738 397.79 298.308 396.878 301.055 391.138C302.395 388.333 303.507 385.425 304.38 382.442C304.741 381.908 305.027 381.328 305.23 380.717C306.294 378.321 307.683 376.083 309.357 374.065C311.592 370.999 312.8 367.303 312.806 363.509C312.835 362.325 312.528 361.157 311.919 360.141C311.311 359.125 310.427 358.302 309.369 357.768Z" fill="#263238" stroke="#263238" stroke-linecap="round" stroke-linejoin="round"/>
<path d="M298.837 358.421C298.837 358.421 291.446 355.65 290.215 360.885C288.983 366.12 301.301 367.66 311.463 365.812" stroke="white" stroke-width="0.75" stroke-linecap="round" stroke-linejoin="round"/>
<path d="M302.533 371.971C302.533 371.971 304.689 372.587 309.616 371.047" stroke="white" stroke-width="0.75" stroke-linecap="round" stroke-linejoin="round"/>
<path d="M289.057 372.686L288.601 375.322C288.601 375.322 285.62 381.986 286.421 382.786C287.221 383.587 291.471 384.511 291.816 383.131C292 382.493 292.116 381.836 292.161 381.173L290.781 380.828" stroke="#263238" stroke-linecap="round" stroke-linejoin="round"/>
<path d="M293.885 373.72C293.885 373.72 298.123 372.686 299.158 376.246" stroke="#263238" stroke-linecap="round" stroke-linejoin="round"/>
<path d="M288.145 371.54C287.648 371.063 287.009 370.76 286.324 370.678C285.64 370.596 284.948 370.738 284.351 371.084" stroke="#263238" stroke-linecap="round" stroke-linejoin="round"/>
<path d="M295.598 377.724C295.499 378.413 295.093 378.955 294.686 378.869C294.28 378.783 294.021 378.204 294.12 377.514C294.218 376.824 294.612 376.282 295.031 376.369C295.45 376.455 295.684 377.034 295.598 377.724Z" fill="#263238"/>
<path d="M286.014 374.854C285.916 375.543 285.509 376.085 285.103 375.999C284.696 375.913 284.438 375.346 284.536 374.644C284.635 373.942 285.029 373.412 285.448 373.499C285.866 373.585 286.1 374.164 286.014 374.854Z" fill="#263238"/>
<path d="M294.452 386.223C289.648 391.926 285.83 387.221 285.497 386.001L294.452 386.223Z" fill="white"/>
<path d="M280.188 416.193C280.188 416.193 274.583 438.489 273.511 449.169C272.877 455.2 272.564 461.261 272.575 467.326L275.384 472.253L279.523 467.326C279.523 467.326 279.387 443.564 279.387 435.951C279.387 428.339 280.188 416.193 280.188 416.193Z" fill="#263238" stroke="#263238" stroke-linecap="round" stroke-linejoin="round"/>
<path d="M306.647 420.443C306.647 420.443 303.211 428.191 304.504 432.059C305.797 435.927 316.76 452.063 317.832 452.716C318.904 453.369 327.305 455.291 328.376 450.351C329.448 445.412 320.419 416.144 317.623 411.845C314.826 407.546 312.695 407.965 311.599 408.827" fill="#92E3A9"/>
<path d="M306.647 420.443C306.647 420.443 303.211 428.191 304.504 432.059C305.797 435.927 316.76 452.063 317.832 452.716C318.904 453.369 327.305 455.291 328.376 450.351C329.448 445.412 320.419 416.144 317.623 411.845C314.826 407.546 312.695 407.965 311.599 408.827" stroke="#263238" stroke-linecap="round" stroke-linejoin="round"/>
<path d="M276.961 436.58L278.254 470.997L304.504 469.715L303.851 435.939L276.961 436.58Z" fill="white" stroke="#263238" stroke-linecap="round" stroke-linejoin="round"/>
<path d="M323.215 444.328C323.215 444.328 316.551 444.968 312.671 447.124C308.791 449.28 293.738 452.495 293.738 452.495L294.6 460.883C301.384 461.75 308.251 461.75 315.036 460.883C324.718 459.38 330.31 459.812 330.741 457.015C331.173 454.219 327.514 443.675 327.514 443.675" fill="#92E3A9"/>
<path d="M323.215 444.328C323.215 444.328 316.551 444.968 312.671 447.124C308.791 449.28 293.738 452.495 293.738 452.495L294.6 460.883C301.384 461.75 308.251 461.75 315.036 460.883C324.718 459.38 330.31 459.812 330.741 457.015C331.173 454.219 327.514 443.675 327.514 443.675" stroke="#263238" stroke-linecap="round" stroke-linejoin="round"/>
<path d="M299.342 451.632L299.761 461.314" stroke="#263238" stroke-linecap="round" stroke-linejoin="round"/>
<path d="M294.391 453.357L287.135 447.555C287.135 447.555 282.208 444.968 281.112 444.968C278.873 445.206 276.648 445.564 274.448 446.04C273.585 446.262 274.016 447.333 275.519 447.986C276.475 448.378 277.493 448.595 278.525 448.627C278.525 448.627 271.651 450.13 271.651 451.854C271.651 453.579 274.657 454.429 274.657 454.429C274.657 454.429 273.795 458.518 275.729 460.033C277.663 461.548 279.609 462.177 283.046 461.265C286.482 460.354 294.662 460.834 294.662 460.834L294.391 453.357Z" fill="white" stroke="#263238" stroke-linecap="round" stroke-linejoin="round"/>
<path d="M258.176 449.735C258.176 449.735 253.15 443.749 251.61 439.105C250.07 434.461 246.584 425.555 246.584 425.555L240.979 425.358C240.979 425.358 241.558 442.751 244.675 452.618C247.791 462.485 251.819 467.498 253.95 466.537C256.081 465.576 259.173 460.933 259.173 460.933" fill="#92E3A9"/>
<path d="M258.176 449.735C258.176 449.735 253.15 443.749 251.61 439.105C250.07 434.461 246.584 425.555 246.584 425.555L240.979 425.358C240.979 425.358 241.558 442.751 244.675 452.618C247.791 462.485 251.819 467.498 253.95 466.537C256.081 465.576 259.173 460.933 259.173 460.933" stroke="#263238" stroke-linecap="round" stroke-linejoin="round"/>
<path d="M252.386 403.74C250.93 404.805 249.956 406.404 249.676 408.186C249.282 409.726 248.518 410.305 245.98 410.12C245.539 410.053 245.088 410.074 244.655 410.182C244.222 410.29 243.814 410.483 243.455 410.749C243.357 410.345 243.299 409.932 243.283 409.517C243.283 408.137 245.635 405.107 246.707 404.232C247.779 403.358 249.343 402.077 249.171 400.906C248.998 399.736 244.576 402.274 243.307 403.161C242.039 404.047 241.349 407.657 241.349 407.657C240.694 409.877 240.635 412.23 241.176 414.481C241.041 414.777 240.918 415.06 240.782 415.392C239.045 419.642 240.979 425.444 240.979 425.444L246.584 425.641C246.584 425.641 246.005 422.746 246.966 421.576C247.926 420.059 249.027 418.636 250.255 417.326C251.794 415.971 252.571 411.919 252.571 410.946C252.747 409.149 253.204 407.39 253.925 405.735C254.702 403.924 254.123 402.582 252.386 403.74Z" fill="white" stroke="#263238" stroke-linecap="round" stroke-linejoin="round"/>
<path d="M239.883 411.303C239.883 411.303 240.573 407.694 241.841 406.807C243.11 405.92 247.52 403.382 247.705 404.565C247.89 405.747 246.337 407.029 245.241 407.878C244.145 408.728 241.817 411.796 241.817 413.163C241.91 414.305 242.176 415.426 242.605 416.489C242.605 416.489 241.373 418.743 240.449 419.026C239.526 419.31 238.811 414.924 239.883 411.303Z" fill="white" stroke="#263238" stroke-linecap="round" stroke-linejoin="round"/>
<path d="M240.08 413.459C240.08 413.459 240.77 409.837 242.039 408.962C243.307 408.088 247.705 405.538 247.902 406.708C248.099 407.878 246.535 409.172 245.438 410.034C244.342 410.896 242.014 413.951 242.014 415.319C242.108 416.461 242.373 417.582 242.802 418.644C242.802 418.644 241.571 420.886 240.647 421.182C239.723 421.478 239.008 417.08 240.08 413.459Z" fill="white" stroke="#263238" stroke-linecap="round" stroke-linejoin="round"/>
<path d="M240.327 423.141C240.327 423.141 238.762 417.758 238.959 415.614C239.156 413.471 239.932 411.598 241.016 411.5C242.1 411.401 246.683 409.738 246.683 411.007C246.683 412.276 242.482 413.656 242.482 413.656C242.482 413.656 245.118 417.08 245.02 418.829C244.915 420.08 244.688 421.318 244.342 422.525" fill="white"/>
<path d="M240.327 423.141C240.327 423.141 238.762 417.758 238.959 415.614C239.156 413.471 239.932 411.598 241.016 411.5C242.1 411.401 246.683 409.738 246.683 411.007C246.683 412.276 242.482 413.656 242.482 413.656C242.482 413.656 245.118 417.08 245.02 418.829C244.915 420.08 244.688 421.318 244.342 422.525" stroke="#263238" stroke-linecap="round" stroke-linejoin="round"/>
<path d="M275.027 489.929L279.868 493.477L291.163 604.488" stroke="white" stroke-width="0.75" stroke-linecap="round" stroke-linejoin="round"/>
<path d="M122.762 435.754C122.762 435.754 126.581 445.375 126.753 448.824C126.926 452.273 126.039 451.719 127.48 456.215C128.921 460.711 133.109 471.452 135.474 480.161C137.349 487.267 138.265 494.591 138.197 501.939H111.331C111.331 501.939 113.326 496.495 107.882 481.257C102.437 466.02 100.269 456.966 100.269 452.63C100.269 448.294 97.9042 443.921 96.9926 439.019C96.0811 434.116 98.9882 434.658 98.9882 434.658L120.951 434.843C120.951 434.843 122.405 434.658 122.762 435.754Z" fill="#263238" stroke="#263238" stroke-linecap="round" stroke-linejoin="round"/>
<path d="M96.8447 436.838C97.0541 434.301 98.9881 434.658 98.9881 434.658L120.951 434.843C120.951 434.843 122.405 434.658 122.762 435.754C122.762 435.754 126.581 445.375 126.753 448.824C126.808 449.732 126.783 450.643 126.679 451.546L126.211 452.261C126.211 452.261 125.484 458.617 116.775 458.986C108.067 459.356 103.226 455.352 101.353 451.534C99.4808 447.715 98.8156 441.556 97.3621 437.984C97.2143 437.565 97.0295 437.257 96.8447 436.838Z" fill="white" stroke="#263238" stroke-linecap="round" stroke-linejoin="round"/>
<path d="M100.27 452.63C100.27 448.27 97.9044 443.921 96.9929 439.019C96.3647 435.631 97.5595 434.843 98.3602 434.683C98.6681 434.793 99.7891 435.446 101.169 439.745C102.807 444.82 101.895 451.534 102.807 456.991C103.719 462.448 108.252 474.421 111.516 483.315C114.201 490.631 114.805 497.702 113.709 502.001H111.331C111.331 502.001 113.327 496.556 107.882 481.319C102.437 466.081 100.27 456.966 100.27 452.63Z" fill="white" stroke="#263238" stroke-linecap="round" stroke-linejoin="round"/>
<path d="M234.697 501.668H212.845C212.449 501.634 212.081 501.452 211.813 501.159C211.544 500.866 211.396 500.483 211.396 500.086C211.396 499.688 211.544 499.305 211.813 499.012C212.081 498.72 212.449 498.538 212.845 498.503H234.697C235.277 498.513 235.852 498.386 236.374 498.133C236.896 497.88 237.352 497.508 237.703 497.046C238.055 496.584 238.292 496.046 238.397 495.475C238.502 494.904 238.471 494.317 238.306 493.76L230.546 465.983C230.433 465.579 230.485 465.148 230.691 464.783C230.897 464.418 231.239 464.149 231.642 464.037C232.046 463.924 232.477 463.976 232.842 464.182C233.207 464.387 233.476 464.729 233.588 465.133L241.349 492.91C241.634 493.936 241.677 495.014 241.477 496.059C241.276 497.105 240.837 498.09 240.193 498.938C239.549 499.785 238.718 500.473 237.765 500.947C236.812 501.42 235.762 501.667 234.697 501.668Z" fill="white" stroke="#263238" stroke-linecap="round" stroke-linejoin="round"/>
<path d="M231.963 429.459L227.01 428.865L219.335 492.843L224.289 493.437L231.963 429.459Z" fill="white" stroke="#263238" stroke-linecap="round" stroke-linejoin="round"/>
<path d="M231.987 429.435C236.833 451.011 234.124 473.597 224.313 493.415L231.987 429.435Z" fill="white" stroke="#263238" stroke-linecap="round" stroke-linejoin="round"/>
<path d="M249.06 501.521H32.877V595.754H249.06V501.521Z" fill="#263238"/>
<mask id="mask0_16_627" style="mask-type:luminance" maskUnits="userSpaceOnUse" x="32" y="501" width="218" height="95">
<path d="M249.06 501.521H32.877V595.754H249.06V501.521Z" fill="white"/>
</mask>
<g mask="url(#mask0_16_627)">
<path opacity="0.72" d="M249.06 501.521H32.877V595.754H249.06V501.521Z" fill="white"/>
</g>
<path d="M249.06 501.521H32.877V595.754H249.06V501.521Z" stroke="#263238" stroke-linecap="round" stroke-linejoin="round"/>
<path d="M249.109 504.194H32.9016V507.323H249.109V504.194Z" fill="#263238"/>
<path d="M250.908 499.673H27.3337V504.6H250.908V499.673Z" fill="white" stroke="#263238" stroke-linecap="round" stroke-linejoin="round"/>
<path d="M465.305 427.501L441.013 427.711C441.013 427.711 439.412 427.501 439.005 428.708C439.005 428.708 434.793 439.351 434.583 443.17C434.374 446.988 435.396 446.373 433.782 451.398C432.169 456.424 427.562 468.262 424.95 477.907C421.44 490.866 420.528 504.613 420.306 517.978C420.306 520.121 418.988 538.586 422.327 538.586C425.098 538.586 450.658 541.973 450.966 537.046C452.198 517.411 448.65 498.219 455.475 479.151C458.123 471.76 461.153 463.901 463.408 456.141C465.662 448.38 466.044 440.312 467.509 432.367C468.52 426.898 465.305 427.501 465.305 427.501Z" fill="#263238" stroke="#263238" stroke-linecap="round" stroke-linejoin="round"/>
<path d="M467.682 429.866C467.448 427.07 465.305 427.464 465.305 427.464L441.013 427.674C441.013 427.674 439.412 427.464 439.005 428.671C439.005 428.671 434.793 439.314 434.583 443.133C434.531 444.139 434.56 445.149 434.669 446.151L435.187 446.939C435.187 446.939 435.987 453.973 445.633 454.33C455.278 454.687 460.685 450.314 462.693 446.101C464.701 441.889 465.502 435.015 467.115 431.049C467.275 430.716 467.473 430.31 467.682 429.866Z" fill="white" stroke="#263238" stroke-linecap="round" stroke-linejoin="round"/>
<path d="M462.053 437.75C460.427 443.613 461.4 445.252 459.774 455.352C458.148 465.453 452.284 476.847 449.993 487.281C447.702 497.714 448.761 534.533 449.02 536.159C449.142 537.024 449.192 537.898 449.168 538.771C450.252 538.364 450.917 537.798 450.966 537.034C452.198 517.399 448.65 498.207 455.475 479.139C458.123 471.748 461.153 463.889 463.408 456.128C465.662 448.368 466.044 440.3 467.509 432.354C468.125 429.029 467.152 427.969 466.278 427.661C464.449 430.832 463.029 434.222 462.053 437.75Z" fill="white" stroke="#263238" stroke-linecap="round" stroke-linejoin="round"/>
<path d="M395.892 438.341C392.287 439.971 388.801 441.852 385.459 443.97C382.441 446.175 382.995 451.595 382.995 453C382.995 454.404 374.964 467.461 376.368 472.08C377.772 476.7 381.184 488.944 381.394 491.789C381.603 494.635 380.987 502.629 380.987 502.629H418.939C418.843 495.52 419.181 488.412 419.949 481.344C421.181 472.314 423.768 469.099 423.768 455.254C423.768 441.408 408.703 438.784 404.897 438.378C401.9 438.148 398.891 438.136 395.892 438.341Z" fill="white" stroke="#263238" stroke-linecap="round" stroke-linejoin="round"/>
<path d="M376.417 472.08C377.649 476.256 380.605 486.665 381.344 490.693C381.344 488.968 381.344 487.306 381.283 485.926C381.086 480.112 381.283 471.871 387.109 458.42C391.581 448.085 394.155 441.322 395.104 438.711C391.783 440.222 388.576 441.972 385.508 443.946C382.49 446.151 383.044 451.571 383.044 452.975C383.044 454.379 375.013 467.461 376.417 472.08Z" fill="#92E3A9" stroke="#263238" stroke-linecap="round" stroke-linejoin="round"/>
<path d="M346.102 500.991C346.102 500.991 343.478 504.957 341.631 507.483C339.783 510.008 336.802 514.873 338.871 515.083C340.941 515.292 343.244 513.247 345.548 512.09C347.11 511.114 348.319 509.663 348.997 507.951C348.997 507.951 348.307 512.324 349.921 511.4C351.534 510.476 351.534 507.261 351.534 505.179C351.59 503.411 351.742 501.646 351.99 499.895C351.99 499.895 348.96 497.246 346.102 500.991Z" fill="white" stroke="#263238" stroke-linecap="round" stroke-linejoin="round"/>
<path d="M347.334 506.115C347.334 506.115 336.137 506.115 334.314 507.162C332.491 508.209 326.245 537.613 321.047 549.586C321.047 549.586 316.884 559.995 313.496 564.947C312.264 566.683 306.721 568.851 302.816 569.874C298.912 570.896 297.359 571.697 297.889 572.744C298.419 573.791 306.512 575.602 310.121 576.131C313.73 576.661 316.108 575.602 317.155 575.602C318.202 575.602 319.495 576.907 321.577 576.131C323.659 575.355 322.353 569.874 322.353 566.757C322.353 563.641 326.258 552.444 330.68 547.75C335.102 543.057 343.7 525.11 345.523 519.641C347.346 514.171 347.864 512.878 347.864 512.878" fill="white"/>
<path d="M347.334 506.115C347.334 506.115 336.137 506.115 334.314 507.162C332.491 508.209 326.245 537.613 321.047 549.586C321.047 549.586 316.884 559.995 313.496 564.947C312.264 566.683 306.721 568.851 302.816 569.874C298.912 570.896 297.359 571.697 297.889 572.744C298.419 573.791 306.512 575.602 310.121 576.131C313.73 576.661 316.108 575.602 317.155 575.602C318.202 575.602 319.495 576.907 321.577 576.131C323.659 575.355 322.353 569.874 322.353 566.757C322.353 563.641 326.258 552.444 330.68 547.75C335.102 543.057 343.7 525.11 345.523 519.641C347.346 514.171 347.864 512.878 347.864 512.878" stroke="#263238" stroke-linecap="round" stroke-linejoin="round"/>
<path d="M344.636 512.398C342.606 513.256 340.885 514.711 339.702 516.57C338.518 518.429 337.928 520.604 338.009 522.806C338.009 530.862 349.847 581.995 349.847 584.828C349.989 587.329 349.548 589.828 348.561 592.13C347.573 594.432 346.066 596.474 344.156 598.095C343.306 598.871 338.366 602.344 338.933 603.946C339.869 606.582 346.484 604.02 348.098 603.33C351.017 602.098 354.257 596.949 357.422 597.171C360.785 597.368 361.204 595.754 361.204 592.428C361.204 589.102 357.509 584.951 357.065 580.209C356.622 575.466 355.082 558.751 356.499 550.756C357.804 543.365 351.263 524.728 351.263 524.728C351.263 524.728 371.367 537.046 389.092 532.747C406.818 528.448 372.561 520.946 367.363 517.152C362.165 513.358 348.898 509.527 344.636 512.398Z" fill="white" stroke="#263238" stroke-linecap="round" stroke-linejoin="round"/>
<path d="M338.477 511.843C338.477 511.843 347.334 521.476 358.58 525.948L362.485 506.953C362.485 506.953 345.819 504.083 334.363 507.212" fill="white"/>
<path d="M338.477 511.843C338.477 511.843 347.334 521.476 358.58 525.948L362.485 506.953C362.485 506.953 345.819 504.083 334.363 507.212" stroke="#263238" stroke-linecap="round" stroke-linejoin="round"/>
<path d="M418.939 502.543C418.843 495.434 419.181 488.325 419.949 481.257C421.181 472.228 423.768 469.013 423.768 455.168C423.768 442.27 410.723 439.154 405.845 438.415C404.708 440.272 403.782 442.252 403.086 444.315C402.679 446.323 394.044 463.79 391.999 476.847C390.398 487.281 391.741 498.466 392.344 502.543H380.962L381.492 506.633L360.182 505.696L354.885 526.945C354.885 526.945 366.365 531.872 374.668 535.272C382.97 538.672 399.674 541.85 409.688 538.697C417.941 536.11 424.088 531.651 422.967 522.351C422.128 515.656 420.781 509.034 418.939 502.543Z" fill="#92E3A9" stroke="#263238" stroke-linecap="round" stroke-linejoin="round"/>
<path d="M395.054 438.735L384.646 453.8L385.853 457.212L382.441 461.031L381.837 472.08" stroke="#263238" stroke-linecap="round" stroke-linejoin="round"/>
<path d="M404.724 444.365L404.12 456.412L399.908 459.023L401.509 462.238L393.281 477.697" stroke="#263238" stroke-linecap="round" stroke-linejoin="round"/>
<path d="M387.454 402.766C387.454 402.766 385.077 408.112 385.274 409.701C385.471 411.291 385.089 413.163 383.549 413.766C382.01 414.37 380.334 415.577 381.086 416.895C381.623 417.696 382.357 418.345 383.217 418.78C383.217 418.78 382.207 425.382 382.823 427.119C383.439 428.856 384.658 432.157 386.654 431.911C388.649 431.665 393.65 431.246 393.65 431.246C394.712 434.501 394.878 437.981 394.131 441.322C392.899 447.149 388.514 452.569 393.33 453.763C398.146 454.958 400.967 448.75 403.185 444.328C405.402 439.905 406.56 434.116 407.557 430.778C408.555 427.44 410.021 424.003 410.021 424.003C407.856 423.335 405.886 422.151 404.281 420.552C402.676 418.953 401.484 416.988 400.807 414.826C398.023 407.078 398.183 401.793 394.008 400.697C392.834 400.338 391.579 400.343 390.409 400.713C389.239 401.083 388.209 401.799 387.454 402.766Z" fill="white" stroke="#263238" stroke-linecap="round" stroke-linejoin="round"/>
<path d="M391.1 425.727C391.1 425.727 391.519 429.115 395.325 427.23" stroke="#263238" stroke-linecap="round" stroke-linejoin="round"/>
<path d="M395.658 397.051C395.658 397.051 391.371 396.767 388.514 396.509C385.656 396.25 384.522 400.204 385.188 402.385C385.853 404.565 386.506 404.848 386.506 404.848C386.506 404.848 390.472 402.545 390.866 404.109C391.26 405.673 387.59 408.765 389.524 411.364C391.458 413.964 394.549 415.996 392.96 417.819C391.371 419.642 392.172 421.354 393.576 421.182C394.981 421.009 396.865 418.349 397.629 421.28C398.393 424.212 394.833 426.479 395.596 427.809C396.36 429.139 403.665 430.852 405.71 429.386C407.754 427.92 412.842 426.491 415.244 418.102C417.646 409.714 415.244 403.739 410.193 398.492C405.143 393.244 396.508 397.346 396.508 397.346L395.658 397.051Z" fill="#263238" stroke="#263238" stroke-linecap="round" stroke-linejoin="round"/>
<path d="M403.468 403.789C404.268 404.175 405.016 404.659 405.697 405.23" stroke="white" stroke-width="0.75" stroke-linecap="round" stroke-linejoin="round"/>
<path d="M390.916 402.458C394.442 401.838 398.062 402.019 401.509 402.988" stroke="white" stroke-width="0.75" stroke-linecap="round" stroke-linejoin="round"/>
<path d="M346.102 500.991L346.706 499.587C347.309 498.183 353.752 496.988 360.12 496.076C370.431 494.61 375.469 492.96 381.443 491.752C388.834 490.25 396.693 488.34 396.693 488.34C396.693 488.34 409.947 491.346 407.779 495.731C405.611 500.116 399.538 500.954 399.538 500.954H349.206C349.321 501.553 349.209 502.173 348.892 502.694C348.576 503.215 348.078 503.6 347.494 503.775" fill="white"/>
<path d="M346.102 500.991L346.706 499.587C347.309 498.183 353.752 496.988 360.12 496.076C370.431 494.61 375.469 492.96 381.443 491.752C388.834 490.25 396.693 488.34 396.693 488.34C396.693 488.34 409.947 491.346 407.779 495.731C405.611 500.116 399.538 500.954 399.538 500.954H349.206C349.321 501.553 349.209 502.173 348.892 502.694C348.576 503.215 348.078 503.6 347.494 503.775" stroke="#263238" stroke-linecap="round" stroke-linejoin="round"/>
<path d="M404.934 464.443C404.934 464.443 402.322 476.096 400.708 479.102C399.095 482.107 395.695 481.11 395.892 482.92C396.064 484.163 396.404 485.377 396.902 486.529C396.902 486.529 394.438 486.529 394.438 487.54C394.438 488.55 397.247 492.159 400.869 493.957C404.49 495.756 407.089 497.776 408.691 495.768C410.292 493.76 411.906 489.942 411.708 489.141C411.511 488.34 413.113 489.745 414.517 487.909C415.028 487.265 415.401 486.522 415.613 485.727C415.825 484.933 415.871 484.103 415.749 483.29C415.749 481.688 420.959 468.644 421.563 467.436" fill="#92E3A9"/>
<path d="M404.934 464.443C404.934 464.443 402.322 476.096 400.708 479.102C399.095 482.107 395.695 481.11 395.892 482.92C396.064 484.163 396.404 485.377 396.902 486.529C396.902 486.529 394.438 486.529 394.438 487.54C394.438 488.55 397.247 492.159 400.869 493.957C404.49 495.756 407.089 497.776 408.691 495.768C410.292 493.76 411.906 489.942 411.708 489.141C411.511 488.34 413.113 489.745 414.517 487.909C415.028 487.265 415.401 486.522 415.613 485.727C415.825 484.933 415.871 484.103 415.749 483.29C415.749 481.688 420.959 468.644 421.563 467.436" stroke="#263238" stroke-linecap="round" stroke-linejoin="round"/>
<path d="M401.09 485.113C404.551 485.654 407.945 486.558 411.216 487.811" stroke="#263238" stroke-width="0.75" stroke-linecap="round" stroke-linejoin="round"/>
<path d="M398.06 484.435C398.06 484.435 401.756 490.508 407.508 491.518" stroke="#263238" stroke-width="0.75" stroke-linecap="round" stroke-linejoin="round"/>
<path d="M412.632 410.995C412.632 410.995 413.026 417.018 407.816 426.454C402.605 435.89 395.362 453.96 400.585 463.79C405.808 473.62 420.06 471.625 424.076 462.792C428.091 453.96 425.48 431.467 421.267 422.032C417.054 412.596 415.244 409.184 415.244 409.184C415.244 409.184 412.78 407.977 412.632 410.995Z" fill="#263238" stroke="#263238" stroke-linecap="round" stroke-linejoin="round"/>
<path d="M414.554 465.084C416.497 465.063 418.373 464.371 419.863 463.125" stroke="white" stroke-width="0.75" stroke-linecap="round" stroke-linejoin="round"/>
<path d="M413.704 414.777C414.798 426.608 413.542 438.539 410.009 449.883C407.754 456.757 408.087 461.45 410.883 463.729" stroke="white" stroke-width="0.75" stroke-linecap="round" stroke-linejoin="round"/>
<path d="M413.088 422.167C413.088 422.167 406.929 437.873 402.002 448.651C397.075 459.43 401.386 466.205 408.777 467.744" stroke="white" stroke-width="0.75" stroke-linecap="round" stroke-linejoin="round"/>
<path d="M392.418 502.543C392.418 502.543 391.507 512.792 393.404 514.208C395.301 515.625 409.023 519.899 418.04 517.054" stroke="#263238" stroke-linecap="round" stroke-linejoin="round"/>
<path d="M381.566 506.682L390.09 508.111" stroke="#263238" stroke-linecap="round" stroke-linejoin="round"/>
<path d="M348.098 603.305C351.017 602.073 354.257 596.924 357.423 597.146C360.785 597.343 361.204 595.73 361.204 592.404C361.103 591.031 360.721 589.694 360.083 588.474C359.997 588.622 359.911 588.758 359.825 588.918C357.865 592.779 354.516 595.754 350.451 597.245C348.775 597.874 346.928 597.874 345.252 597.245L344.858 597.405C344.636 597.639 344.402 597.861 344.156 598.095C343.306 598.871 338.366 602.344 338.933 603.946C339.869 606.557 346.484 603.995 348.098 603.305Z" fill="#92E3A9" stroke="#263238" stroke-linecap="round" stroke-linejoin="round"/>
<path d="M306.376 568.778C305.144 569.221 303.913 569.603 302.816 569.886C298.912 570.933 297.359 571.709 297.889 572.756C298.419 573.803 306.512 575.614 310.121 576.144C313.73 576.674 316.108 575.614 317.155 575.614C318.202 575.614 319.495 576.92 321.577 576.144C323.326 575.479 322.685 571.537 322.439 568.445C319.706 569.322 316.885 569.897 314.026 570.157C308.729 570.576 306.844 569.283 306.376 568.778Z" fill="#92E3A9" stroke="#263238" stroke-linecap="round" stroke-linejoin="round"/>
<path d="M415.133 586.011L414.973 585.887V563.21H418.225V548.872H406.165V563.21H409.43V586.306L380.593 595.496V597.787C380.638 598.447 380.933 599.065 381.416 599.516C381.9 599.968 382.537 600.219 383.198 600.219C383.86 600.219 384.497 599.968 384.98 599.516C385.464 599.065 385.758 598.447 385.804 597.787V597.393L409.922 594.584V598.045C409.922 598.65 410.163 599.229 410.59 599.657C411.017 600.084 411.597 600.324 412.201 600.324C412.806 600.324 413.385 600.084 413.813 599.657C414.24 599.229 414.48 598.65 414.48 598.045V594.473L439.572 597.393V597.725C439.618 598.385 439.912 599.003 440.395 599.455C440.879 599.906 441.516 600.157 442.177 600.157C442.839 600.157 443.476 599.906 443.959 599.455C444.443 599.003 444.737 598.385 444.783 597.725V595.434L415.133 586.011Z" fill="#263238" stroke="#263238" stroke-linecap="round" stroke-linejoin="round"/>
<path d="M447.887 534.878H379.521C376.8 534.878 374.594 537.084 374.594 539.805V546.58C374.594 549.302 376.8 551.508 379.521 551.508H447.887C450.608 551.508 452.814 549.302 452.814 546.58V539.805C452.814 537.084 450.608 534.878 447.887 534.878Z" fill="#263238" stroke="#263238" stroke-linecap="round" stroke-linejoin="round"/>
<path d="M310.231 497.948H344.057V458.875H310.231V497.948Z" fill="white" stroke="#263238" stroke-linecap="round" stroke-linejoin="round"/>
<path d="M346.681 499.698H308.482V464.419H326.565L346.681 499.698Z" fill="white" stroke="#263238" stroke-linecap="round" stroke-linejoin="round"/>
<path d="M300.291 501.668H322.143C322.539 501.634 322.907 501.452 323.175 501.159C323.444 500.866 323.592 500.483 323.592 500.086C323.592 499.688 323.444 499.306 323.175 499.013C322.907 498.72 322.539 498.538 322.143 498.503H300.291C299.769 498.5 299.253 498.389 298.776 498.177C298.299 497.965 297.871 497.656 297.519 497.271C297.091 496.804 296.79 496.234 296.646 495.617C296.501 495 296.518 494.357 296.694 493.748L304.442 465.971C304.555 465.567 304.503 465.135 304.297 464.77C304.091 464.405 303.749 464.137 303.346 464.024C302.942 463.912 302.511 463.964 302.146 464.169C301.781 464.375 301.512 464.717 301.399 465.121L293.639 492.898C293.354 493.924 293.311 495.001 293.511 496.047C293.712 497.092 294.151 498.078 294.795 498.925C295.439 499.773 296.27 500.461 297.223 500.934C298.176 501.408 299.226 501.655 300.291 501.656V501.668Z" fill="white" stroke="#263238" stroke-linecap="round" stroke-linejoin="round"/>
<path d="M310.637 493.445L315.591 492.85L307.916 428.873L302.963 429.467L310.637 493.445Z" fill="white" stroke="#263238" stroke-linecap="round" stroke-linejoin="round"/>
<path d="M303.001 429.435C298.151 451.01 300.855 473.596 310.663 493.415L303.001 429.435Z" fill="white" stroke="#263238" stroke-linecap="round" stroke-linejoin="round"/>
<path d="M481.54 501.521H281.678V614.231H481.54V501.521Z" fill="#263238"/>
<mask id="mask1_16_627" style="mask-type:luminance" maskUnits="userSpaceOnUse" x="281" y="501" width="201" height="114">
<path d="M481.54 501.521H281.678V614.231H481.54V501.521Z" fill="white"/>
</mask>
<g mask="url(#mask1_16_627)">
<path opacity="0.72" d="M481.54 501.521H281.678V614.231H481.54V501.521Z" fill="white"/>
</g>
<path d="M481.54 501.521H281.678V614.231H481.54V501.521Z" stroke="#263238" stroke-linecap="round" stroke-linejoin="round"/>
<path d="M481.392 504.231H281.777V507.347H481.392V504.231Z" fill="#263238"/>
<path d="M482.993 499.673H277.318V504.6H482.993V499.673Z" fill="white" stroke="#263238" stroke-linecap="round" stroke-linejoin="round"/>
<path d="M154.457 490.286L151.377 492.75C151.377 492.75 142.607 497.369 140.907 498.749C139.207 500.129 140.451 501.521 141.375 503.221C142.299 504.92 146.758 506.756 148.298 506.756C149.837 506.756 156.92 503.368 158.004 501.373C159.088 499.377 160.16 492.282 160.16 492.282L154.457 490.286Z" fill="white" stroke="#263238" stroke-linecap="round" stroke-linejoin="round"/>
<path d="M152.868 497.209L152.412 500.905C152.412 500.905 146.093 504.6 146.709 505.684C147.325 506.768 147.941 506.448 151.636 505.376C155.331 504.305 157.795 502.297 157.955 501.373" stroke="#263238" stroke-linecap="round" stroke-linejoin="round"/>
<path d="M146.142 496.446L147.682 503.676" stroke="#263238" stroke-linecap="round" stroke-linejoin="round"/>
<path d="M142.755 498.133L145.994 505.992" stroke="#263238" stroke-linecap="round" stroke-linejoin="round"/>
<path d="M141.375 499.365C141.375 499.365 142.139 503.676 143.986 505.068" stroke="#263238" stroke-linecap="round" stroke-linejoin="round"/>
<path d="M155.541 485.359L154.309 490.902L160.16 492.282L162.772 486.123L155.541 485.359Z" fill="#92E3A9" stroke="#263238" stroke-linecap="round" stroke-linejoin="round"/>
<path d="M146.709 422.919C146.206 426.535 146.368 430.213 147.189 433.771C148.569 438.55 154.42 462.263 155.196 463.95C155.972 465.638 155.812 468.262 155.344 471.033C154.876 473.805 156.736 480.432 156.736 480.888C156.736 481.344 154.112 483.204 153.964 485.051C153.817 486.899 156.884 488.131 159.655 488.439C162.427 488.747 164.275 488.439 165.975 480.74C167.674 473.041 162.735 462.719 159.655 450.561C156.576 438.403 152.425 429.46 151.809 426.996C151.193 424.532 147.645 420.073 146.709 422.919Z" fill="#92E3A9" stroke="#263238" stroke-linecap="round" stroke-linejoin="round"/>
<path d="M178.945 591.036C178.945 591.036 182.025 595.138 181.409 596.37C180.793 597.602 174.424 599.45 173.193 600.484C171.38 602.289 169.11 603.566 166.627 604.18C162.722 605.202 153.274 606.841 154.309 605.202C155.344 603.564 167.033 595.138 167.033 595.138C170.93 593.566 174.906 592.197 178.945 591.036Z" fill="white" stroke="#263238" stroke-linecap="round" stroke-linejoin="round"/>
<path d="M180.633 595.446C180.633 595.446 173.723 597.91 171.505 599.634C170.194 600.666 168.792 601.577 167.317 602.357" stroke="#263238" stroke-width="0.75" stroke-linecap="round" stroke-linejoin="round"/>
<path d="M172.983 578.102L178.945 591.036C178.945 591.036 178.736 591.862 175.04 593.5C172.493 594.528 169.78 595.084 167.034 595.138L164.361 585.493L172.983 578.102Z" fill="#263238" stroke="#263238" stroke-linecap="round" stroke-linejoin="round"/>
<path d="M162.932 482.23C162.932 482.23 158.202 485.101 158.004 486.332C158.075 488.135 158.348 489.924 158.817 491.666C158.817 491.666 149.172 511.794 146.302 516.918C143.432 522.043 139.318 532.107 143.42 538.475C147.522 544.843 159.852 574.813 159.852 574.813L155.738 597.811L166.208 600.484C166.208 600.484 172.577 583.239 174.831 576.871C177.085 570.502 182.431 554.082 183.257 548.329C184.082 542.577 184.685 534.373 184.895 533.757C185.104 533.141 202.966 507.064 205.429 501.114C207.893 495.164 207.683 482.637 206.452 479.964C205.22 477.291 162.932 482.23 162.932 482.23Z" fill="#263238" stroke="#263238" stroke-linecap="round" stroke-linejoin="round"/>
<path d="M175.25 489.203L169.707 491.876L175.656 495.768L166.418 494.536L176.063 498.232" stroke="white" stroke-width="0.75" stroke-linecap="round" stroke-linejoin="round"/>
<path d="M190.438 491.876L179.142 496.384C179.142 496.384 193.308 493.711 199.676 493.92" stroke="#263238" stroke-linecap="round" stroke-linejoin="round"/>
<path d="M177.504 499.266C177.504 499.266 163.338 530.271 163.338 536.011C163.338 541.752 161.281 573.385 161.281 573.385" stroke="white" stroke-width="0.75" stroke-linecap="round" stroke-linejoin="round"/>
<path d="M166.098 411.635C166.098 411.635 147.165 420.973 146.746 422.919C146.327 424.865 148.557 430.433 148.557 430.433C148.557 430.433 160.246 468.459 161.22 471.526C162.193 474.593 162.611 475.283 161.638 476.811C160.665 478.338 159.409 481.134 160.801 482.662C162.193 484.189 171.53 486.985 177.516 486.985C183.503 486.985 194.232 485.175 201.192 483.499C208.152 481.824 207.881 478.769 207.597 475.566C207.314 472.364 203.286 417.487 203.286 415.392C203.286 413.298 188.504 410.243 183.503 409.96C178.502 409.677 167.773 409.96 166.098 411.635Z" fill="#92E3A9" stroke="#263238" stroke-linecap="round" stroke-linejoin="round"/>
<path d="M168.142 421.12L172.934 434.67L180.633 420.936C180.633 420.936 178.551 414.284 172.934 414.703C167.317 415.121 168.142 421.12 168.142 421.12Z" fill="#263238" stroke="#263238" stroke-linecap="round" stroke-linejoin="round"/>
<path d="M172.934 434.646C172.934 434.646 170.47 472.302 170.47 474.175C170.47 476.047 168.598 482.083 168.598 482.083L172.761 486.862C172.761 486.862 179.413 482.083 180.46 478.547C181.507 475.012 172.934 434.646 172.934 434.646Z" fill="#263238" stroke="#263238" stroke-linecap="round" stroke-linejoin="round"/>
<path d="M166.097 410.379C166.097 410.379 165.124 416.23 165.679 418.743C166.233 421.256 163.868 426.959 164.989 427.649C166.11 428.339 169.854 420.825 169.854 420.825L174.043 427.932L176.826 420.406C176.826 420.406 180.719 428.068 181.84 427.378C182.961 426.688 181.138 421.946 182.813 419.581C183.691 418.113 184.254 416.48 184.466 414.783C184.678 413.086 184.535 411.364 184.045 409.726C183.059 405.969 179.031 405.969 175.681 406.376C172.33 406.782 168.462 406.757 166.097 410.379Z" fill="#92E3A9" stroke="#263238" stroke-linecap="round" stroke-linejoin="round"/>
<path d="M166.098 411.635C166.098 411.635 170.557 417.794 171.394 420.689C172.232 423.584 173.476 429.743 174.043 427.932C174.609 426.121 174.314 419.162 177.664 415.257C181.015 411.352 180.128 408.568 180.128 408.568C180.128 408.568 175.854 413.853 166.098 411.635Z" fill="white" stroke="#263238" stroke-linecap="round" stroke-linejoin="round"/>
<path d="M157.191 400.5C157.191 400.5 162.611 411.217 168.191 414.05C173.772 416.883 179.61 413.914 181.138 409.603C182.665 405.292 181.273 399.748 181.273 399.748C181.273 399.748 184.341 397.938 184.759 395.573C185.178 393.207 185.597 392.37 182.394 390.559C181.164 389.772 179.855 389.116 178.489 388.6C178.489 388.6 178.354 383.87 175.57 382.343C172.786 380.815 166.947 381.641 163.449 385.398C159.951 389.155 157.191 400.5 157.191 400.5Z" fill="white" stroke="#263238" stroke-linecap="round" stroke-linejoin="round"/>
<path d="M166.418 399.379C167.388 400.761 168.183 402.259 168.783 403.838C169.066 405.23 167.945 406.905 169.62 406.905C170.114 406.905 170.603 406.806 171.058 406.613C171.513 406.42 171.925 406.139 172.269 405.784" stroke="#263238" stroke-linecap="round" stroke-linejoin="round"/>
<path d="M169.571 395.154C169.571 395.154 170.273 392.69 173.525 393.171" stroke="#263238" stroke-linecap="round" stroke-linejoin="round"/>
<path d="M164.213 397.359C164.213 397.359 161.749 396.669 159.433 399.576" stroke="#263238" stroke-linecap="round" stroke-linejoin="round"/>
<path d="M170.729 406.917L171.665 409.689C173.002 409.426 174.236 408.789 175.224 407.851C176.212 406.913 176.913 405.714 177.245 404.392" stroke="#263238" stroke-linecap="round" stroke-linejoin="round"/>
<path d="M167.071 402.237C167.071 402.994 166.846 403.735 166.425 404.365C166.004 404.995 165.406 405.486 164.706 405.776C164.006 406.066 163.235 406.142 162.492 405.994C161.749 405.846 161.067 405.481 160.531 404.946C159.995 404.41 159.63 403.727 159.482 402.984C159.334 402.241 159.41 401.471 159.7 400.771C159.99 400.071 160.481 399.472 161.111 399.051C161.741 398.63 162.482 398.406 163.24 398.406C163.743 398.406 164.241 398.505 164.706 398.697C165.17 398.89 165.593 399.172 165.949 399.528C166.304 399.884 166.586 400.306 166.779 400.771C166.971 401.235 167.071 401.734 167.071 402.237Z" stroke="#263238" stroke-width="0.5" stroke-linecap="round" stroke-linejoin="round"/>
<path d="M176.679 397.014L180.867 393.257" stroke="#263238" stroke-width="0.5" stroke-linecap="round" stroke-linejoin="round"/>
<path d="M176.827 398.196C176.827 398.954 176.602 399.695 176.181 400.325C175.76 400.955 175.162 401.446 174.462 401.736C173.762 402.026 172.991 402.101 172.248 401.954C171.505 401.806 170.823 401.441 170.287 400.905C169.751 400.369 169.386 399.687 169.238 398.944C169.091 398.2 169.166 397.43 169.456 396.73C169.746 396.03 170.237 395.432 170.867 395.011C171.497 394.59 172.238 394.365 172.996 394.365C174.012 394.365 174.986 394.769 175.705 395.487C176.423 396.206 176.827 397.18 176.827 398.196Z" stroke="#263238" stroke-width="0.5" stroke-linecap="round" stroke-linejoin="round"/>
<path d="M174.129 397.765C174.326 398.196 174.252 398.664 173.956 398.8C173.661 398.935 173.267 398.677 173.069 398.233C172.872 397.79 172.946 397.334 173.242 397.199C173.538 397.063 173.932 397.322 174.129 397.765Z" fill="#263238"/>
<path d="M165.556 401.202C165.753 401.645 165.679 402.114 165.383 402.237C165.088 402.36 164.693 402.126 164.496 401.682C164.299 401.239 164.373 400.783 164.669 400.648C164.964 400.512 165.358 400.758 165.556 401.202Z" fill="#263238"/>
<path d="M166.418 400.771C166.418 400.771 167.945 398.825 169.337 399.662" stroke="#263238" stroke-width="0.5" stroke-linecap="round" stroke-linejoin="round"/>
<path d="M168.746 387.985C168.746 387.985 164.016 393.134 160.394 397.839C159.085 399.705 157.64 401.471 156.07 403.124C155.211 401.536 154.466 399.89 153.841 398.196C153.398 396.87 152.889 395.566 152.313 394.291L151.082 397.075C151.082 397.075 147.46 383.525 151.365 377.305C155.27 371.084 164.089 369.446 170.778 371.811C177.467 374.176 178.378 380.372 179.635 383.575C180.891 386.777 182 390.805 182 390.805L180.189 394.71C180.189 394.71 176.851 391.791 175.176 390.251C174.133 389.256 173.365 388.009 172.946 386.63C172.946 386.63 170.162 389.98 169.325 390.953C168.875 391.494 168.3 391.917 167.649 392.185L168.746 387.985Z" fill="#263238" stroke="#263238" stroke-linecap="round" stroke-linejoin="round"/>
<path d="M170.039 374.841C168.527 381.059 165.385 386.761 160.936 391.36" stroke="white" stroke-width="0.75" stroke-linecap="round" stroke-linejoin="round"/>
<path d="M171.727 375.851C172.051 379.424 171.471 383.02 170.039 386.309" stroke="white" stroke-width="0.75" stroke-linecap="round" stroke-linejoin="round"/>
<path d="M202.14 414.037C202.14 414.037 207.511 415.442 209.383 418.016C211.256 420.591 223.869 456.104 224.337 462.177C224.805 468.249 222.933 480.863 223.401 482.267C223.869 483.672 225.274 485.544 223.869 486.246C222.592 487.035 221.413 487.973 220.359 489.042C217.31 488.894 214.271 488.581 211.256 488.106C209.851 487.638 207.979 484.608 209.383 482.735C210.4 481.477 210.976 479.919 211.022 478.301C211.022 477.365 208.102 465.872 208.102 463.519C208.111 461.379 207.995 459.241 207.757 457.114C206.934 453.69 205.923 450.313 204.727 447.001C200.978 440.194 199.115 432.51 199.332 424.742" fill="#92E3A9"/>
<path d="M202.14 414.037C202.14 414.037 207.511 415.442 209.383 418.016C211.256 420.591 223.869 456.104 224.337 462.177C224.805 468.249 222.933 480.863 223.401 482.267C223.869 483.672 225.274 485.544 223.869 486.246C222.592 487.035 221.413 487.973 220.359 489.042C217.31 488.894 214.271 488.581 211.256 488.106C209.851 487.638 207.979 484.608 209.383 482.735C210.4 481.477 210.976 479.919 211.022 478.301C211.022 477.365 208.102 465.872 208.102 463.519C208.111 461.379 207.995 459.241 207.757 457.114C206.934 453.69 205.923 450.313 204.727 447.001C200.978 440.194 199.115 432.51 199.332 424.742" stroke="#263238" stroke-linecap="round" stroke-linejoin="round"/>
<path d="M211.305 488.106L210.837 492.553L218.548 493.711L220.408 489.042L211.305 488.106Z" fill="#92E3A9" stroke="#263238" stroke-linecap="round" stroke-linejoin="round"/>
<path d="M210.837 492.553C210.837 492.553 201.955 496.52 201.253 497.69C200.551 498.86 199.147 504.465 198.211 505.167C197.274 505.869 196.351 506.805 198.913 506.571C201.475 506.337 202.189 504.933 202.189 504.933C202.068 505.795 202.068 506.67 202.189 507.532C204.115 507.765 206.052 507.884 207.991 507.889C208.572 507.966 209.16 507.966 209.74 507.889C209.74 507.889 209.272 509.01 210.147 509.38C211.021 509.749 210.972 508.912 211.539 508.148C212.22 506.877 212.801 505.555 213.276 504.194C213.561 503.501 213.768 502.777 213.892 502.038C215.298 501.279 216.581 500.311 217.698 499.168C218.93 497.677 218.265 493.366 218.265 493.366L210.837 492.553Z" fill="white" stroke="#263238" stroke-linecap="round" stroke-linejoin="round"/>
<path d="M202.189 504.933L202.658 499.057" stroke="#263238" stroke-linecap="round" stroke-linejoin="round"/>
<path d="M204.505 507.84L205.269 499.525" stroke="#263238" stroke-linecap="round" stroke-linejoin="round"/>
<path d="M207.425 507.68L208.656 499.981" stroke="#263238" stroke-linecap="round" stroke-linejoin="round"/>
<path d="M209.79 507.84C209.79 507.84 210.812 501.213 211.022 500.449" stroke="#263238" stroke-linecap="round" stroke-linejoin="round"/>
<path d="M155.738 597.811C155.738 597.811 152.252 600.891 151.636 601.297C151.02 601.704 139.725 607.875 139.934 609.513C140.143 611.152 151.846 610.339 158.411 608.688C164.977 607.038 165.396 606.434 165.593 605.412C165.79 604.389 166.209 600.484 166.209 600.484L155.738 597.811Z" fill="white" stroke="#263238" stroke-linecap="round" stroke-linejoin="round"/>
<path d="M142.163 608.762C142.163 608.762 157.696 608.516 163.868 604.574" stroke="#263238" stroke-width="0.75" stroke-linecap="round" stroke-linejoin="round"/>
<path d="M72.1348 599.782C72.1348 599.782 85.2412 603.318 88.37 606.028C91.4988 608.737 82.1247 609.563 76.2983 609.353C70.4718 609.144 69.8559 607.481 65.6924 607.481C61.5289 607.481 57.7842 609.353 57.1559 605.609C56.5277 601.864 61.7383 600.41 65.2736 599.573C67.5441 599.089 69.8979 599.161 72.1348 599.782Z" fill="white" stroke="#263238" stroke-linecap="round" stroke-linejoin="round"/>
<path d="M68.3533 605.806C68.3533 605.806 74.771 609.994 86.116 607.53" stroke="#263238" stroke-width="0.75" stroke-linecap="round" stroke-linejoin="round"/>
<path d="M59.0286 601.864C62.2111 603.927 65.5515 605.735 69.0186 607.272C73.6009 609.144 76.9268 609.735 74.8451 611.435C72.7633 613.135 72.1351 613.307 66.9368 614.342C61.7386 615.377 51.3298 612.679 50.2951 612.679C49.2603 612.679 48.2133 613.911 45.3678 612.889C42.5223 611.866 42.0419 610.425 43.0767 607.062C44.1114 603.699 57.3657 600.817 59.0286 601.864Z" fill="white" stroke="#263238" stroke-linecap="round" stroke-linejoin="round"/>
<path d="M48.3857 610.487C56.2485 613.269 64.7836 613.527 72.8002 611.226" stroke="#263238" stroke-width="0.75" stroke-linecap="round" stroke-linejoin="round"/>
<path d="M87.9517 457.693L90.4153 483.906C90.4153 483.906 86.8677 521.562 82.5071 533.831C78.1465 546.1 74.18 559.625 72.7265 564.626C71.2729 569.628 69.8194 589.176 71.0635 593.118C71.7652 594.98 72.116 596.955 72.0983 598.945V599.782C72.0983 599.782 72.9359 600.41 70.0165 602.073C67.9288 603.169 65.6854 603.937 63.3647 604.352L58.9918 601.889C58.9918 601.889 52.7588 606.459 50.4677 607.715C48.0635 608.706 45.549 609.405 42.9782 609.797C42.0221 608.29 41.4627 606.565 41.3522 604.783V596.678C41.3522 593.759 39.2705 579.433 39.4799 570.675C39.6893 561.916 41.3522 552.358 43.0152 547.997C44.6781 543.636 50.2952 530.308 50.2952 530.308C50.0231 524.664 49.114 519.069 47.5852 513.629C44.8875 503.023 44.2593 497.616 40.724 486.172C37.1887 474.729 44.2593 457.841 44.2593 457.841C44.2593 457.841 60.6917 460.748 69.647 460.304C75.8105 459.944 81.9333 459.071 87.9517 457.693Z" fill="#263238" stroke="#263238" stroke-linecap="round" stroke-linejoin="round"/>
<path d="M56.7864 480.161C57.6959 481.772 58.7384 483.305 59.9029 484.743" stroke="white" stroke-width="0.75" stroke-linecap="round" stroke-linejoin="round"/>
<path d="M67.9839 464.148L74.8451 464.357L74.6357 462.682" stroke="white" stroke-width="0.75" stroke-linecap="round" stroke-linejoin="round"/>
<path d="M77.3455 463.125V464.788C77.3455 464.788 83.1596 466.254 87.7419 463.753" stroke="white" stroke-width="0.75" stroke-linecap="round" stroke-linejoin="round"/>
<path d="M83.9974 466.821L82.3345 473.275L85.0321 476.971C85.0321 476.971 81.0903 483.832 81.0903 484.46" stroke="white" stroke-width="0.75" stroke-linecap="round" stroke-linejoin="round"/>
<path d="M85.2415 485.778L78.3803 491.457C78.3803 491.457 74.2168 526.822 71.9256 535.975C69.6344 545.127 61.1103 574.875 60.0756 581.552C59.4952 584.784 59.0841 588.044 58.8438 591.32C58.8438 591.948 60.0756 594.239 60.0756 595.483V600.275" stroke="white" stroke-width="0.75" stroke-linecap="round" stroke-linejoin="round"/>
<path d="M64.8549 461.438C64.8549 461.438 77.3454 463.1 82.9625 462.669C88.5796 462.238 89.4049 459.972 90.0331 457.89C90.6613 455.808 82.5437 406.302 82.1249 403.382C81.7061 400.463 82.3343 395.683 78.4294 394.02C74.5246 392.358 66.1113 395.252 64.6947 400.894C63.2782 406.536 67.8235 439.166 66.5671 446.237C65.7313 451.27 65.1598 456.344 64.8549 461.438Z" fill="white" stroke="#263238" stroke-linecap="round" stroke-linejoin="round"/>
<path d="M75.6704 403.813L78.7992 409.431L79.8339 456.03L83.5786 464.973L86.6951 453.948L80.6716 409.012L81.4969 402.36L79.0086 396.952L75.6704 403.813Z" fill="#263238" stroke="#263238" stroke-linecap="round" stroke-linejoin="round"/>
<path d="M79.8338 401.522L83.5785 407.977L81.7061 396.115L77.9614 398.406L79.8338 401.522Z" fill="white" stroke="#263238" stroke-linecap="round" stroke-linejoin="round"/>
<path d="M70.6812 383.218L69.6465 387.997L78.1706 403.185C78.1706 403.185 80.7205 397.519 81.7059 396.115C82.6914 394.71 86.6332 388.539 86.6332 388.539C86.6332 388.539 80.314 389.044 79.2423 385.299C78.1706 381.555 79.2423 376.356 75.2882 375.938C71.3341 375.519 70.6812 383.218 70.6812 383.218Z" fill="white" stroke="#263238" stroke-linecap="round" stroke-linejoin="round"/>
<path d="M74.8203 380.273L75.2268 381.678C75.0032 382.37 74.9381 383.103 75.0361 383.824C75.1342 384.545 75.393 385.234 75.7934 385.841C77.173 387.603 84.9211 391.853 88.3086 390.855C91.6961 389.857 92.7308 380.027 92.7308 380.027C92.7308 380.027 95.9705 379.953 95.6379 378.093C95.3053 376.233 93.4206 374.201 93.1742 372.082C92.9279 369.963 94.1227 369.421 93.63 366.97C93.3184 364.531 92.0512 362.316 90.107 360.811C87.8651 359.086 75.6086 364.617 71.9748 368.497C68.3409 372.378 67.5895 376.492 68.4887 378.832C69.388 381.173 74.8203 380.273 74.8203 380.273Z" fill="white" stroke="#263238" stroke-linecap="round" stroke-linejoin="round"/>
<path d="M90.4889 373.018C90.4889 373.782 90.1563 374.373 89.8483 374.361C89.5404 374.349 89.3433 373.708 89.3925 372.957C89.4418 372.205 89.7251 371.602 90.0331 371.614C90.341 371.626 90.5381 372.267 90.4889 373.018Z" fill="#263238"/>
<path d="M91.3512 369.507C91.3512 369.507 89.7991 368.079 88.2224 370.419" stroke="#263238" stroke-linecap="round" stroke-linejoin="round"/>
<path d="M88.5056 383.057C87.7375 382.849 87.0664 382.378 86.6086 381.727" stroke="#263238" stroke-linecap="round" stroke-linejoin="round"/>
<path d="M76.3352 371.38L75.9287 375.186L78.3307 374.484C78.3307 374.484 77.0989 377.465 78.7988 376.085C80.4987 374.706 82.9007 370.111 83.6521 369.68C84.4035 369.249 88.5794 365.196 91.4864 362.4C94.3935 359.604 95.6253 355.785 94.6399 353.9C93.6544 352.016 81.7305 343.8 70.8413 349.577C59.9521 355.354 57.008 363.804 58.1536 368.46C59.2992 373.117 68.0081 385.287 69.6218 385.472C71.2355 385.657 74.82 380.274 74.82 380.274C74.82 380.274 70.1268 379.042 71.1246 377.034C72.1224 375.026 76.3352 371.38 76.3352 371.38Z" fill="#263238" stroke="#263238" stroke-linecap="round" stroke-linejoin="round"/>
<path d="M69.2279 372.415C67.8041 373.426 66.3052 374.328 64.7441 375.112" stroke="white" stroke-width="0.75" stroke-linecap="round" stroke-linejoin="round"/>
<path d="M88.6537 352.324C84.2709 358.335 79.2758 363.875 73.7488 368.855" stroke="white" stroke-width="0.75" stroke-linecap="round" stroke-linejoin="round"/>
<path d="M65.9389 369.31C65.4708 369.741 64.9904 370.185 64.4854 370.628" stroke="white" stroke-width="0.75" stroke-linecap="round" stroke-linejoin="round"/>
<path d="M79.6736 352.841C76.4608 357.992 72.6529 362.746 68.3286 367.007" stroke="white" stroke-width="0.75" stroke-linecap="round" stroke-linejoin="round"/>
<path d="M69.2281 386.334L79.834 401.522L72.1352 409.221L66.7275 388.416L69.2281 386.334Z" fill="white" stroke="#263238" stroke-linecap="round" stroke-linejoin="round"/>
<path d="M63.8203 389.672L49.2603 394.452C49.2603 394.452 37.8168 448.959 36.9422 450.413C36.0676 451.866 21.1381 478.745 23.0104 481.615C24.8828 484.485 42.7194 494.105 44.2222 493.477C45.725 492.849 56.294 472.672 62.6994 466.845C69.1048 461.019 75.6704 453.739 76.4957 445.633L70.8786 421.699L70.2504 406.721L63.8203 389.672Z" fill="#92E3A9" stroke="#263238" stroke-linecap="round" stroke-linejoin="round"/>
<path d="M67.9837 388.416L63.8202 389.672L62.7732 410.059L69.8561 414.013L65.6926 420.246L76.5079 445.633L72.135 406.314L67.9837 388.416Z" fill="#92E3A9" stroke="#263238" stroke-linecap="round" stroke-linejoin="round"/>
<path d="M54.5202 476.392L37.9031 490.853C37.9031 490.853 39.5414 492.824 44.2592 493.477C44.2592 493.477 51.6501 483.376 54.5202 476.392Z" fill="#92E3A9" stroke="#263238" stroke-linecap="round" stroke-linejoin="round"/>
<path d="M57.1561 464.357C59.9412 464.405 62.7214 464.61 65.4832 464.973C66.9367 465.392 72.5538 471.218 72.5538 471.218C72.5538 471.218 72.5538 471.846 70.472 472.45C68.3902 473.054 64.6455 470.368 64.6455 470.368L56.5402 478.067L51.5391 471.834L57.1561 464.357Z" fill="white" stroke="#263238" stroke-linecap="round" stroke-linejoin="round"/>
<path d="M56.5406 462.066L58.4129 464.554L51.5394 471.834L50.7141 469.136L56.5406 462.066Z" fill="white" stroke="#263238" stroke-linecap="round" stroke-linejoin="round"/>
<path d="M61.714 391.335C61.714 391.335 42.1529 391.335 40.6993 392.998C39.2458 394.661 23.8481 441.26 23.8481 443.958C23.8481 446.656 50.2705 471.428 50.2705 471.428L57.7599 462.275L42.8057 438.76L54.6681 413.175" fill="#92E3A9"/>
<path d="M61.714 391.335C61.714 391.335 42.1529 391.335 40.6993 392.998C39.2458 394.661 23.8481 441.26 23.8481 443.958C23.8481 446.656 50.2705 471.428 50.2705 471.428L57.7599 462.275L42.8057 438.76L54.6681 413.175" stroke="#263238" stroke-linecap="round" stroke-linejoin="round"/>
</svg>
